<svg xmlns="http://www.w3.org/2000/svg" viewBox="5.6995 9.9775 162.0845 17.2527">
<defs
     id="defs1301" />
  
  
  <g
    
    
     id="layer1"
     transform="translate(0,-259.8215)">
    <g
       id="g1921">
      
      <path
        
         id="rect1119"
         d="m 24.910521,270.74794 a 2.9318376,2.324549 0 0 0 -2.817501,1.68974 l -0.01898,-0.0172 -7.641803,13.65385 h 4.193206 l 6.282791,-10.607 4.198538,7.08817 h -4.216748 -2.028082 l -2.366381,3.51883 h 4.394463 6.301008 4.193217 2.006061 0.0087 4.1412 0.04221 v -3.51883 h -0.04221 v -6.53987 l 8.172632,10.0587 h 4.926833 0.595799 v -0.002 -9.33381 -2.46324 h 1.844265 13.812954 v 2.46324 H 57.079704 v 9.33568 h 14.020277 c 2.198327,0 3.968051,-1.76972 3.968051,-3.96803 v -7.22944 c 0,-2.19832 -1.769724,-3.96804 -3.968051,-3.96804 H 55.315156 c -0.02678,0 -0.05313,8.4e-4 -0.07973,0.002 v -0.002 h -4.149185 v 10.64953 l -8.379582,-10.64953 -5.316026,3.9e-4 v 11.64665 h -3.975661 l -5.672189,-10.135 -0.01404,0.0125 a 2.9318376,2.324549 0 0 0 -2.817865,-1.68519 z m 54.585038,0.16099 c -1.740188,0 -3.141403,2.39561 -3.141403,5.37147 v 4.4222 c 0,2.97586 1.401215,5.37185 3.141403,5.37185 H 94.5111 v -3.55947 H 80.945698 v -2.50992 H 94.5111 v -3.1076 H 80.825717 v -2.50994 h 29.402223 v 2.50994 H 96.63257 v 9.17699 h 0.39453 3.53022 v -5.37185 -0.60414 h 9.21648 c 0.24998,0.29629 1.06738,1.59745 1.06738,5.97599 h 3.67643 6.08344 0.34743 v -0.20695 c 0.0313,-0.0569 0.0505,-0.12154 0.0505,-0.19137 v -2.85776 c 0,-0.0698 -0.0191,-0.13444 -0.0505,-0.19138 v -6.61163 l 8.17342,10.05909 h 4.92644 0.5954 v -11.63187 h 2.05881 v 11.63187 h 4.05652 v -15.16552 h -6.11533 -4.14879 v 10.64917 l -8.37997,-10.64917 h -1.1665 -4.14916 v 11.5115 h -2.46853 c -0.14007,-1.20922 -0.38115,-2.52878 -0.79855,-3.65401 0.32323,-0.53846 0.51603,-1.20145 0.51603,-1.9229 v -2.67964 c 0,-1.80322 -1.1898,-3.25495 -2.66789,-3.25495 H 97.41592 96.15868 Z m 66.604991,0 c -1.76794,0 -3.19152,1.4232 -3.19152,3.19114 v 8.78285 c 0,1.76795 1.42358,3.19153 3.19152,3.19153 h 7.33498 2.42905 3.19114 v -3.19153 -0.22061 h -12.31763 v -8.21783 h 12.31763 v -0.34441 -3.19114 h -3.19114 -2.42905 z M 60.729184,280.141 H 70.95687 v 2.46321 H 60.729184 Z"
         style="opacity:1;fill:currentColor;fill-opacity:1;stroke:none;stroke-width:1.42924464;stroke-miterlimit:4;stroke-dasharray:none;stroke-opacity:1" />
    </g>
  </g></svg>
