<svg xmlns="http://www.w3.org/2000/svg" viewBox="0.7933 10.3427 22.4134 3.3118">
<g transform="translate(1.8221 10.4180) scale(0.025413)"><path d="M 173 4.688 C 150.024 6.422, 131.451 17.347, 123.754 33.653 C 120.905 39.689, 120.521 41.509, 120.511 49.021 C 120.501 56.613, 120.852 58.257, 123.727 64.097 C 136.772 90.596, 180.093 101.254, 212.733 85.995 C 223.677 80.878, 230.881 74.044, 235.782 64.126 C 239.174 57.264, 239.495 55.893, 239.443 48.512 C 239.367 37.798, 235.586 29.322, 227.237 21.153 C 215.381 9.552, 194.107 3.094, 173 4.688 M 567.633 5.105 C 546.090 7.354, 529.299 17.522, 521.727 32.903 C 518.776 38.897, 518.500 40.272, 518.500 48.979 C 518.500 57.247, 518.857 59.263, 521.216 64.296 C 526.789 76.191, 540.144 86.021, 557 90.633 C 567.118 93.402, 589.006 93.162, 599.465 90.168 C 615.449 85.593, 627.761 76.298, 633.606 64.394 C 636.212 59.086, 636.500 57.505, 636.500 48.500 C 636.500 39.042, 636.318 38.164, 633.132 32.289 C 622.413 12.526, 597.116 2.027, 567.633 5.105 M 7 62.573 L 7 120.145 45.750 119.738 C 86.582 119.310, 88.077 119.156, 99.181 114.244 C 101.750 113.108, 105.948 110.246, 108.510 107.884 C 126.090 91.679, 118.243 67.599, 92.872 59.892 C 89.092 58.744, 86 57.648, 86 57.455 C 86 57.263, 88.362 55.924, 91.250 54.481 C 101.219 49.498, 105.956 42.739, 105.956 33.500 C 105.956 24.145, 100.029 16.089, 89.055 10.528 C 79.340 5.605, 74.152 5.031, 39.250 5.015 L 7 5 7 62.573 M 239.168 13.912 C 243.751 18.814, 256.163 31.831, 266.750 42.839 L 286 62.854 286 91.427 L 286 120 300 120 L 314 120 314.039 91.250 L 314.078 62.500 341.289 34 L 368.500 5.500 352.019 5.224 L 335.538 4.948 326.056 15.224 C 320.841 20.876, 312.733 29.445, 308.037 34.266 L 299.500 43.031 282.150 24.016 L 264.801 5 247.819 5 L 230.837 5 239.168 13.912 M 374 62.500 L 374 120 387.982 120 L 401.964 120 402.232 95.750 L 402.500 71.500 440.500 71.500 L 478.500 71.500 478.768 95.750 L 479.036 120 493.018 120 L 507 120 507 62.500 L 507 5 493 5 L 479 5 479 29 L 479 53 440.500 53 L 402 53 402 29 L 402 5 388 5 L 374 5 374 62.500 M 647 62.500 L 647 120 661 120 L 675 120 675 79.500 C 675 57.225, 675.271 39, 675.601 39 C 675.932 39, 685.648 48.112, 697.192 59.250 C 708.736 70.388, 719.009 79.640, 720.021 79.810 C 721.276 80.022, 728.633 73.605, 743.149 59.637 C 754.858 48.370, 764.789 39.369, 765.219 39.635 C 765.648 39.901, 766 58.091, 766 80.059 L 766 120 780 120 L 794 120 794 62.500 L 794 5 781.059 5 L 768.117 5 748.809 23.309 C 738.189 33.379, 727.413 43.515, 724.861 45.834 L 720.222 50.050 696.427 27.525 L 672.631 5 659.816 5 L 647 5 647 62.500 M 35.475 23.204 C 35.181 23.970, 35.067 30.875, 35.220 38.548 L 35.500 52.500 48 52.403 C 63.175 52.286, 68.212 51.023, 73.131 46.104 C 80.441 38.795, 78.879 29.874, 69.439 25.012 C 65.029 22.741, 63.193 22.467, 50.285 22.156 C 38.777 21.879, 35.906 22.083, 35.475 23.204 M 167 23.377 C 156.906 26.306, 149.511 32.139, 146.375 39.645 C 144.412 44.343, 144.674 53.704, 146.903 58.500 C 152.582 70.720, 169.286 77.688, 186.697 75.098 C 196.042 73.708, 201.467 71.378, 207.029 66.363 C 214.395 59.721, 216.765 50.677, 213.778 40.616 C 212.041 34.766, 204.799 27.837, 197.441 24.982 C 190.186 22.166, 174.095 21.319, 167 23.377 M 565 23.312 C 553.126 26.744, 545.970 32.856, 543.375 41.783 C 537.386 62.383, 558.064 79.060, 584.686 75.100 C 604.522 72.150, 615.784 58.773, 611.936 42.735 C 610.928 38.533, 609.607 36.462, 605.094 32.014 C 601.545 28.516, 597.672 25.818, 594.500 24.636 C 588.061 22.235, 571.325 21.484, 565 23.312 M 35.477 71.200 C 35.184 71.963, 35.069 79.318, 35.222 87.544 L 35.500 102.500 53 102.436 C 73.642 102.361, 79.585 101.087, 84.906 95.597 C 87.569 92.849, 88.370 91.097, 88.697 87.307 C 89.275 80.598, 86.626 76.651, 79.224 73.188 C 73.769 70.637, 72.618 70.495, 54.755 70.162 C 39.453 69.877, 35.911 70.068, 35.477 71.200 M 124 110 L 124 120 180 120 L 236 120 236 110 L 236 100 180 100 L 124 100 124 110 M 522 110 L 522 120 578 120 L 634 120 634 110 L 634 100 578 100 L 522 100 522 110" stroke="none" fill="currentColor" fill-rule="evenodd"/></g></svg>
