<svg xmlns="http://www.w3.org/2000/svg" viewBox="0.8112 0.8103 22.3776 22.3944">
<g transform="translate(-10.8571 -10.8571) scale(0.142857)"><path d="M 155.389 92.342 C 150.384 96.647, 152.491 103.895, 159.225 105.539 C 161.421 106.075, 162.536 105.618, 164.975 103.179 C 168.686 99.468, 168.881 95.791, 165.545 92.455 C 162.459 89.368, 158.893 89.328, 155.389 92.342 M 112.159 109.601 C 107.284 113.016, 107.423 119.266, 112.448 122.558 C 119.899 127.440, 127.894 116.803, 121.545 110.455 C 118.710 107.619, 115.417 107.319, 112.159 109.601 M 201 109.301 C 199.625 109.993, 197.909 111.790, 197.188 113.295 C 193.564 120.854, 203.562 127.529, 209.545 121.545 C 212.605 118.486, 212.679 114.859, 209.750 111.637 C 206.857 108.455, 204.130 107.727, 201 109.301 M 137.343 125.566 C 135.273 127.636, 134.895 128.748, 135.391 131.316 C 136.147 135.228, 139.302 138, 143 138 C 146.698 138, 149.853 135.228, 150.609 131.316 C 151.411 127.164, 147.601 123, 143 123 C 141.015 123, 138.991 123.918, 137.343 125.566 M 173.229 123.669 C 171.072 124.537, 168.911 129.796, 169.593 132.515 C 170.990 138.080, 178.300 139.791, 182.545 135.545 C 185.545 132.546, 185.677 129.130, 182.927 125.635 C 180.918 123.081, 176.778 122.241, 173.229 123.669 M 92.455 154.455 C 89.119 157.791, 89.314 161.468, 93.025 165.179 C 95.464 167.618, 96.579 168.075, 98.775 167.539 C 102.244 166.692, 104.692 164.244, 105.539 160.775 C 106.075 158.579, 105.618 157.464, 103.179 155.025 C 99.468 151.314, 95.791 151.119, 92.455 154.455 M 122.364 153.170 C 120.090 154.271, 117.979 157.986, 118.032 160.797 C 118.092 164.046, 122.748 168, 126.511 168 C 128.881 168, 134 162.532, 134 160 C 134 157.341, 128.810 151.976, 126.327 152.068 C 125.322 152.105, 123.539 152.601, 122.364 153.170 M 154.455 154.455 C 149.494 159.415, 153.009 168, 160 168 C 161.948 168, 163.998 167.093, 165.545 165.545 C 167.093 163.998, 168 161.948, 168 160 C 168 158.052, 167.093 156.002, 165.545 154.455 C 163.998 152.907, 161.948 152, 160 152 C 158.052 152, 156.002 152.907, 154.455 154.455 M 189.496 154.250 C 185.799 157.430, 185.756 162.533, 189.399 165.667 C 192.893 168.672, 196.461 168.630, 199.545 165.545 C 203.541 161.550, 202.531 155.941, 197.316 153.163 C 194.151 151.478, 192.442 151.716, 189.496 154.250 M 219.465 152.961 C 214.287 155.036, 213.059 161.305, 217.008 165.508 C 220.058 168.755, 224.320 168.770, 227.545 165.545 C 230.605 162.486, 230.679 158.859, 227.750 155.637 C 225.110 152.732, 222.300 151.825, 219.465 152.961 M 138.114 183.750 C 132.564 188.358, 135.697 197, 142.918 197 C 147.699 197, 150.400 194.228, 150.400 189.321 C 150.400 183.018, 143.024 179.673, 138.114 183.750 M 173.229 182.669 C 171.072 183.537, 168.911 188.796, 169.593 191.515 C 171.032 197.248, 179.274 199.010, 182.927 194.365 C 185.677 190.870, 185.545 187.454, 182.545 184.455 C 180.222 182.131, 176.392 181.397, 173.229 182.669 M 111.201 198.028 C 106.707 202.214, 107.794 208.582, 113.440 211.154 C 116.445 212.524, 120.846 210.537, 122.892 206.887 C 126.710 200.076, 116.945 192.676, 111.201 198.028 M 200.500 197.184 C 195.432 200.151, 194.527 205.618, 198.455 209.545 C 201.541 212.632, 205.107 212.672, 208.611 209.658 C 213.535 205.423, 211.492 198.015, 205 196.569 C 203.625 196.263, 201.600 196.539, 200.500 197.184 M 157.357 215.001 C 154.566 216.115, 152 219.836, 152 222.768 C 152 225.888, 156.282 230, 159.531 230 C 161.117 230, 163.350 228.804, 165.179 226.975 C 167.618 224.536, 168.075 223.421, 167.539 221.225 C 166.318 216.224, 161.568 213.320, 157.357 215.001" stroke="none" fill="currentColor" fill-rule="evenodd"/></g></svg>
