<svg xmlns="http://www.w3.org/2000/svg" viewBox="1.7016 0.7944 20.5968 22.4112">
<g transform="translate(0.6192 0.6192) scale(0.071174)"><path d="M 151.528 20.014 C 142.793 21.566, 138.303 23.841, 95.508 48.401 C 59 69.352, 52.650 73.351, 46.892 79.012 C 39.270 86.507, 34.537 94.975, 32.438 104.878 C 30.405 114.471, 30.405 205.529, 32.438 215.122 C 34.535 225.015, 39.270 233.493, 46.885 240.988 C 52.262 246.281, 57.899 250.016, 77 260.940 C 89.925 268.332, 108.938 279.240, 119.250 285.179 C 129.563 291.119, 140.813 296.950, 144.250 298.137 C 153.048 301.176, 167.029 301.149, 175.934 298.075 C 179.473 296.854, 201.298 284.975, 224.434 271.677 C 271.299 244.742, 276.506 240.865, 282.944 228.110 C 288.680 216.748, 288.965 213.519, 288.965 160 C 288.965 106.481, 288.680 103.252, 282.944 91.890 C 276.506 79.135, 271.299 75.258, 224.434 48.323 C 201.298 35.025, 179.698 23.248, 176.434 22.152 C 169.281 19.750, 158.315 18.809, 151.528 20.014 M 146.660 56.048 C 132.733 58.385, 119.375 64.267, 107.608 73.243 C 98.065 80.522, 97.778 81.144, 101.970 85.470 C 103.853 87.411, 106.019 89, 106.785 89 C 107.551 89, 110.402 87.054, 113.121 84.675 C 119.904 78.741, 132.241 72.368, 141.555 69.986 C 152.073 67.296, 167.898 67.288, 178.377 69.968 C 187.953 72.418, 200.536 78.878, 206.934 84.631 C 209.607 87.034, 212.427 89, 213.201 89 C 214.884 89, 221 82.903, 221 81.224 C 221 79.201, 208.043 69.243, 200.089 65.153 C 183.018 56.374, 164.013 53.135, 146.660 56.048 M 148 77.434 C 136.453 79.870, 127.644 84.117, 118.250 91.776 C 115.912 93.682, 114 95.773, 114 96.424 C 114 98.129, 120.311 104, 122.143 104 C 122.994 104, 124.500 103.105, 125.490 102.011 C 128.813 98.339, 136.953 93.803, 144.544 91.392 C 161.082 86.140, 180.250 89.818, 192.936 100.677 C 195.071 102.505, 197.446 104, 198.213 104 C 199.833 104, 206 97.921, 206 96.323 C 206 94.957, 199.034 89.224, 192.500 85.214 C 180.512 77.857, 161.635 74.556, 148 77.434 M 76.265 103.750 C 67.015 114.954, 62.176 123.913, 58.471 136.693 C 52.303 157.964, 54.761 180.432, 65.491 200.850 C 69.517 208.512, 79.331 221, 81.326 221 C 82.982 221, 89 214.804, 89 213.099 C 89 212.381, 87.034 209.607, 84.631 206.934 C 82.228 204.262, 78.389 198.475, 76.099 194.074 C 70.323 182.970, 68 173.199, 68 160 C 68 142.120, 73.892 125.440, 84.483 113.339 C 86.967 110.500, 89 107.551, 89 106.785 C 89 105.151, 82.913 99, 81.296 99 C 80.685 99, 78.422 101.138, 76.265 103.750 M 234.196 102.298 C 230.231 106.389, 230.202 107.861, 234.012 111.511 C 242.166 119.323, 249.094 133.782, 251.600 148.216 C 255.136 168.584, 249.325 190.447, 236.058 206.694 C 233.276 210.101, 231 213.275, 231 213.748 C 231 214.987, 237.388 221, 238.705 221 C 240.502 221, 248.801 211.186, 253.015 204.078 C 269.164 176.840, 268.920 141.238, 252.407 115.248 C 247.708 107.852, 240.196 99, 238.619 99 C 237.944 99, 235.954 100.484, 234.196 102.298 M 149 103.694 C 146.075 104.739, 145 107.427, 145 113.691 C 145 120.777, 143.552 123.036, 137.348 125.628 C 134.034 127.013, 133.608 126.938, 128.258 124.040 C 125.171 122.368, 121.623 121, 120.373 121 C 117.661 121, 114.821 124.563, 109.216 135 C 104.640 143.520, 104.788 145.876, 110.079 148.786 C 117.367 152.793, 118 153.694, 118 160.066 C 118 165.901, 117.938 166.031, 113.750 168.951 C 111.413 170.582, 108.656 172.514, 107.625 173.245 C 104.634 175.367, 105.422 178.863, 111.143 188.859 C 117.785 200.462, 119.001 201.083, 126.969 196.936 L 132.835 193.883 137.882 196.440 C 143.984 199.532, 145 201.236, 145 208.378 C 145 216.163, 146.456 217, 160 217 C 173.274 217, 175 216.080, 175 209.008 C 175 201.879, 176.187 199.761, 181.929 196.635 L 187.073 193.835 192.985 196.912 C 197.636 199.333, 199.410 199.795, 201.297 199.077 C 204.538 197.845, 215.396 178.823, 214.489 175.966 C 214.138 174.861, 211.297 172.269, 208.176 170.206 L 202.500 166.455 202.203 160.245 L 201.905 154.036 207.424 150.505 C 213.465 146.641, 215.357 144.118, 214.311 141.322 C 213.163 138.257, 203.747 122.547, 202.588 121.765 C 200.558 120.395, 196.973 120.992, 193.230 123.323 C 187.227 127.061, 186.117 127.199, 181.312 124.799 C 178.860 123.574, 176.565 122.106, 176.212 121.536 C 175.859 120.966, 175.329 117.136, 175.035 113.025 C 174.555 106.315, 174.244 105.422, 172 104.290 C 169.523 103.041, 152.091 102.589, 149 103.694 M 91.762 118.250 C 86.132 125.128, 82.328 131.970, 79.392 140.500 C 77.001 147.446, 76.642 150.015, 76.663 160 C 76.684 169.862, 77.077 172.639, 79.417 179.500 C 83.171 190.506, 93.115 206, 96.424 206 C 97.968 206, 104 199.768, 104 198.173 C 104 197.495, 102.253 194.731, 100.118 192.030 C 92.582 182.496, 89.024 172.223, 89.024 160 C 89.024 147.736, 93.203 135.796, 100.466 127.311 C 102.410 125.040, 104 122.554, 104 121.787 C 104 120.167, 97.921 114, 96.323 114 C 95.728 114, 93.675 115.912, 91.762 118.250 M 219.196 117.298 C 217.438 119.111, 216 121.177, 216 121.889 C 216 122.600, 217.523 124.962, 219.385 127.137 C 234.689 145.016, 234.660 175.018, 219.323 192.936 C 217.495 195.071, 216 197.446, 216 198.213 C 216 200.313, 222.655 206.347, 224.282 205.722 C 226.420 204.902, 234.523 193.701, 237.441 187.533 C 241.558 178.831, 243.365 170.433, 243.365 160 C 243.365 149.180, 241.452 140.692, 236.959 131.572 C 233.563 124.679, 225.453 114, 223.615 114 C 222.943 114, 220.954 115.484, 219.196 117.298 M 151.500 143.665 C 144.504 147.362, 141 153.150, 141 161.010 C 141 172.143, 148.861 180, 160 180 C 171.950 180, 179.591 171.625, 178.812 159.381 C 178.483 154.219, 177.869 152.406, 175.430 149.392 C 173.791 147.367, 170.893 144.876, 168.991 143.855 C 164.694 141.551, 155.687 141.453, 151.500 143.665 M 117.064 219.434 C 115.205 221.352, 113.975 223.492, 114.278 224.282 C 115.086 226.389, 126.263 234.507, 132.257 237.340 C 145.039 243.383, 162.760 245.156, 175.780 241.695 C 186.577 238.825, 204.050 228.639, 205.743 224.227 C 206.340 222.671, 200.284 216, 198.274 216 C 197.541 216, 194.707 217.766, 191.976 219.925 C 173.215 234.754, 146.762 234.737, 127.970 219.882 C 125.269 217.747, 122.459 216, 121.726 216 C 120.992 216, 118.895 217.545, 117.064 219.434 M 102.196 234.298 C 100.438 236.111, 99 238.101, 99 238.720 C 99 239.339, 101.362 241.827, 104.250 244.248 C 119.893 257.367, 135.593 263.669, 155.229 264.712 C 173.117 265.661, 189.319 261.791, 204.020 253.057 C 211.358 248.698, 221 240.490, 221 238.603 C 221 237.302, 214.905 231, 213.646 231 C 213.229 231, 210.101 233.276, 206.694 236.058 C 179.384 258.359, 138.497 258.006, 112.973 235.250 C 110.351 232.912, 107.573 231, 106.799 231 C 106.025 231, 103.954 232.484, 102.196 234.298" stroke="none" fill="currentColor" fill-rule="evenodd"/></g></svg>
