<svg xmlns="http://www.w3.org/2000/svg" viewBox="0.8168 2.1318 22.3927 19.7445">
<g transform="translate(-27.1975 2.9448) scale(0.045430)"><path d="M 832.469 5.986 C 807.841 8.065, 788.645 14.192, 742.888 34.578 C 704.041 51.885, 696.172 54.287, 672.383 56.095 C 664.197 56.717, 657.339 57.374, 657.142 57.554 C 656.167 58.448, 651.954 91.215, 652.208 95.932 C 652.481 101.017, 652.692 101.418, 655.500 102.204 C 660.611 103.635, 691.703 103.206, 700.961 101.577 C 705.614 100.758, 709.589 100.256, 709.794 100.461 C 710.235 100.902, 706.303 102.681, 682.869 112.645 C 671.021 117.683, 664.297 121.123, 662.369 123.134 C 659.588 126.033, 659.491 126.486, 659.208 137.813 C 658.834 152.815, 659.872 155.193, 668.710 159.588 C 675.709 163.068, 695.219 169.788, 708 173.121 C 718.951 175.976, 747.998 186.264, 779 198.267 C 821.564 214.748, 828.054 216.374, 859.862 218.531 C 883.337 220.123, 898.718 221.782, 900.851 222.952 C 901.824 223.485, 898.979 227.175, 890.718 236.097 C 876.739 251.194, 843.529 283.971, 832.274 293.779 C 768.263 349.557, 720.006 364.764, 690.218 338.543 C 684.044 333.108, 678.606 324.419, 676.493 316.611 C 674.059 307.622, 674.745 294.243, 677.958 288 C 681.137 281.822, 685.900 275, 687.034 275 C 687.549 275, 689.337 277.706, 691.006 281.013 C 694.694 288.317, 704.844 298.846, 711.066 301.818 C 726.946 309.406, 740.145 297.736, 740.264 276 C 740.434 245.111, 715.823 222.022, 687.842 226.820 C 661.455 231.345, 645.424 253.754, 643.361 289 C 641.846 314.879, 651.248 345.777, 665.962 363.271 C 675.362 374.447, 688.464 383.442, 701.479 387.653 C 712.322 391.163, 731.348 392.003, 744.500 389.553 C 797.745 379.637, 859.147 333.842, 929.602 251.500 C 943.913 234.774, 961.030 217, 962.827 217 C 965.364 217, 963.368 227.979, 953.421 268.731 C 939.159 327.159, 935.698 346.033, 935.583 366 C 935.507 379.204, 935.705 380.917, 937.799 385.167 C 942.110 393.918, 948.578 395.582, 956.413 389.955 C 964.402 384.218, 979.855 364.228, 1000.830 332.500 C 1027.333 292.408, 1034.543 275.752, 1029.564 266.124 C 1028.713 264.478, 1025.683 262.044, 1022.127 260.148 C 1007.665 252.440, 1001.116 237.285, 1003.150 216.236 C 1004 207.446, 1008.154 194.885, 1012.473 188.042 C 1021.075 174.417, 1037.274 163.103, 1061.669 153.681 C 1073.323 149.180, 1076.848 147.381, 1080.250 144.199 C 1084.352 140.361, 1083.841 136.982, 1077.083 123.250 L 1071.165 111.226 1046.333 110.759 C 1017.643 110.219, 1015.123 109.695, 989 98.840 C 954.751 84.608, 929.713 74.893, 918.763 71.587 C 877.186 59.034, 851.553 60.203, 788.500 77.529 C 760.907 85.111, 743.935 89.268, 743.275 88.608 C 741.641 86.974, 770.941 73.133, 798.628 62.460 C 818.833 54.671, 831.756 52.075, 854 51.336 C 889.037 50.172, 924.853 57.063, 967.500 73.171 C 1008.099 88.507, 1029.844 93.994, 1050 93.990 C 1063.718 93.988, 1069.561 91.481, 1072.629 84.282 C 1077.225 73.495, 1069.858 54.654, 1060.006 52.002 C 1057.910 51.437, 1047.550 50.299, 1036.985 49.473 C 1008.099 47.214, 998.508 44.798, 955.296 28.896 C 902.254 9.375, 890.014 6.454, 857.500 5.554 C 849.250 5.325, 837.986 5.520, 832.469 5.986 M 816 113.492 C 802.350 117.520, 775.376 126.723, 761.820 131.976 C 739.826 140.500, 736.945 145.327, 749.623 152.413 C 757.472 156.800, 777.331 164.836, 789.033 168.360 C 852.100 187.354, 919.965 182.367, 977.560 154.507 C 989.440 148.761, 995.400 144.206, 994.411 141.629 C 992.153 135.745, 947.403 114.469, 931.500 111.719 C 918.281 109.433, 913.682 112.773, 908.915 128.118 C 905.240 139.946, 901.191 146.370, 894.657 150.736 C 888.339 154.959, 882.984 156.328, 875 155.761 C 867.522 155.230, 862.211 152.845, 853.765 146.225 C 845.107 139.437, 840.887 133.095, 837.648 122 C 835.402 114.307, 832.553 109.989, 829.765 110.049 C 828.519 110.076, 822.325 111.626, 816 113.492" stroke="none" fill="currentColor" fill-rule="evenodd"/></g></svg>
