<svg xmlns="http://www.w3.org/2000/svg" viewBox="3.5881 0.7939 16.8238 22.4121">
<g fill="currentColor" transform="translate(4.2311 1.7450) scale(0.051755)"><path d="M 120 6.450 C 115.875 7.135, 100.688 9.434, 86.250 11.559 C 68.581 14.159, 60 15.815, 60 16.626 C 60 17.834, 82.524 141.594, 83.484 145.664 C 83.921 147.514, 82.867 148.437, 76.248 152.006 C 33.005 175.320, 7.226 213.671, 5.292 257.565 C 3.746 292.650, 15.963 323.148, 41.934 349.031 C 62.249 369.278, 87.439 382.703, 117.312 389.205 C 126.120 391.122, 130.548 391.425, 150 391.443 C 169.601 391.462, 173.802 391.178, 182.604 389.243 C 212.286 382.717, 236.345 370.214, 256.499 350.842 C 272.926 335.051, 283.945 317.676, 290.010 298 C 293.913 285.340, 295.090 277.105, 295.071 262.598 C 295.024 227.535, 279.481 194.640, 251.725 170.861 C 247.751 167.456, 244.357 164.315, 244.182 163.881 C 244.007 163.446, 255.184 143.684, 269.020 119.966 C 282.856 96.248, 294.024 76.721, 293.838 76.573 C 282.950 67.887, 248.695 43.070, 248.101 43.438 C 247.640 43.723, 241.974 52.987, 235.511 64.024 C 229.047 75.062, 223.644 83.959, 223.504 83.796 C 223.364 83.633, 223.887 78.606, 224.666 72.625 C 225.446 66.644, 225.952 61.619, 225.792 61.458 C 224.950 60.616, 169.677 55.937, 169.041 56.654 C 168.627 57.119, 166.224 74.538, 163.700 95.361 C 161.176 116.185, 158.861 133.472, 158.556 133.778 C 158.250 134.083, 157.809 134.142, 157.576 133.909 C 157.342 133.676, 151.855 104.576, 145.381 69.242 L 133.610 5 130.555 5.103 C 128.875 5.159, 124.125 5.765, 120 6.450 M 124.659 148.006 C 68.243 158.271, 25.916 197.636, 17.971 247.227 C 16.239 258.036, 17.162 278.283, 19.856 288.613 C 28.513 321.796, 52.873 350.179, 86.257 365.977 C 110.235 377.323, 133.693 381.717, 160.763 379.930 C 209.359 376.724, 253.130 349.195, 272.484 309.666 C 293.245 267.264, 284.544 219.971, 249.637 185.484 C 230.655 166.730, 208.235 154.836, 180.500 148.804 C 166.721 145.808, 138.923 145.410, 124.659 148.006 M 79.994 215.934 C 75.107 217.421, 71.345 219.902, 67.261 224.333 C 49.492 243.610, 49.632 284.062, 67.532 302.480 C 73.156 308.266, 78.911 310.949, 85.761 310.978 C 112.252 311.089, 126.956 266.480, 111.027 234.325 C 103.759 219.653, 91.551 212.419, 79.994 215.934 M 207.636 216.411 C 192.366 222.068, 183 239.651, 183 262.661 C 183 275.127, 184.226 281.350, 188.482 290.500 C 192.674 299.512, 198.098 305.671, 204.444 308.626 C 221.315 316.482, 238.913 303.610, 244.607 279.250 C 246.617 270.650, 246.572 254.413, 244.516 246.500 C 238.706 224.140, 222.489 210.909, 207.636 216.411 M 69.490 239.310 C 61.560 247.240, 63.058 262.807, 72.247 267.965 C 74.703 269.344, 75.255 269.318, 78.295 267.680 C 83.505 264.875, 85.492 260.685, 85.496 252.500 C 85.500 244.601, 83.053 239.257, 78.478 237.172 C 74.535 235.375, 73.078 235.722, 69.490 239.310 M 199.849 237.520 C 196.210 239.497, 193 246.517, 193 252.500 C 193 258.641, 196.247 265.559, 200.053 267.527 C 203.850 269.491, 205.236 269.389, 208.385 266.912 C 212.500 263.675, 214.346 259.212, 214.346 252.500 C 214.346 245.788, 212.500 241.325, 208.385 238.088 C 205.293 235.656, 203.500 235.537, 199.849 237.520" stroke="none" fill="currentColor" fill-rule="evenodd"/></g></svg>
