<svg xmlns="http://www.w3.org/2000/svg" viewBox="0.7944 2.4567 22.4112 19.1016">
<g transform="translate(-10.8940 -5.2636) scale(0.143266)"><path d="M 179 62.288 C 177.158 63.215, 176.421 64.481, 176.200 67.098 C 175.941 70.171, 175.334 70.920, 171.700 72.653 C 167.895 74.468, 167.258 74.517, 164.931 73.174 C 161.391 71.133, 158.054 72.278, 154.750 76.668 C 151.463 81.036, 151.287 83.612, 154.073 86.577 C 155.963 88.590, 156.036 89.149, 154.896 92.952 C 153.901 96.273, 153.084 97.233, 150.875 97.675 C 146.246 98.601, 144.961 100.874, 145.672 106.880 C 146.411 113.115, 147.977 115, 152.420 115 C 155.264 115, 155.930 115.517, 157.463 118.917 C 159.096 122.539, 159.107 123.008, 157.615 125.140 C 154.854 129.081, 155.594 131.598, 160.644 135.454 C 163.198 137.404, 165.638 139, 166.067 139 C 166.496 139, 168.198 137.863, 169.850 136.472 C 172.668 134.102, 173.106 134.023, 176.899 135.207 C 180.169 136.228, 181.068 137.048, 181.588 139.485 C 182.601 144.237, 183.761 145, 189.967 145 C 196.527 145, 198.995 143.204, 199.008 138.421 C 199.015 136.055, 199.762 135.096, 202.941 133.370 C 206.835 131.256, 206.890 131.255, 210.021 133.159 C 213.987 135.571, 215.887 134.968, 219.848 130.039 C 223.521 125.468, 223.764 123.241, 220.976 119.696 C 219.155 117.382, 219.077 116.722, 220.198 113.131 C 221.242 109.785, 221.972 109.040, 224.710 108.527 C 228.952 107.731, 230.075 105.431, 229.323 99.081 C 228.665 93.520, 226.474 91, 222.298 91 C 220.684 91, 219.478 89.897, 218.066 87.129 C 216.333 83.732, 216.265 83.028, 217.514 81.379 C 219.894 78.235, 219.226 75.341, 215.250 71.572 C 210.995 67.539, 207.244 66.968, 204.551 69.944 C 202.855 71.818, 202.628 71.827, 198.217 70.189 C 194.650 68.864, 193.470 67.848, 192.863 65.580 C 192.435 63.980, 191.503 62.302, 190.792 61.851 C 188.834 60.608, 181.820 60.868, 179 62.288 M 180.241 89.995 C 171.231 95.488, 170.436 108.902, 178.769 114.835 C 185.204 119.418, 193.647 118.444, 198.848 112.520 C 203.141 107.631, 203.826 102.079, 200.850 96.299 C 196.835 88.503, 187.414 85.621, 180.241 89.995 M 119.655 112.829 C 118.745 113.835, 118 115.404, 118 116.315 C 118 117.273, 116.482 118.608, 114.404 119.476 C 111.217 120.807, 110.565 120.809, 108.681 119.489 C 105.753 117.438, 104.628 117.601, 101.077 120.589 C 97.873 123.285, 96.952 127.552, 99.108 129.708 C 100.859 131.459, 98.346 138, 95.922 138 C 93.015 138, 90 141.597, 90 145.066 C 90 149.415, 91.484 151.647, 94.821 152.314 C 98.778 153.106, 101.046 158.187, 98.632 160.854 C 96.353 163.372, 96.589 165.358, 99.589 168.923 C 102.431 172.300, 106.865 173.072, 108.956 170.553 C 110.734 168.411, 117 171.509, 117 174.530 C 117 177.654, 120.112 180, 124.257 180 C 128.244 180, 131 177.906, 131 174.878 C 131 173.567, 132.162 172.412, 134.440 171.461 C 137.509 170.178, 138.195 170.205, 140.815 171.709 C 143.572 173.291, 143.910 173.289, 146.361 171.683 C 147.797 170.742, 149.705 168.853, 150.601 167.486 C 152.109 165.185, 152.106 164.811, 150.565 162.459 C 149.142 160.287, 149.082 159.416, 150.151 156.459 C 150.857 154.505, 152.088 153, 152.978 153 C 156.281 153, 159 150.010, 159 146.378 C 159 141.565, 157.424 139, 154.468 139 C 151 139, 148.589 133.541, 150.619 130.285 C 152.646 127.035, 152.324 124.948, 149.313 121.805 C 146.476 118.844, 144.105 118.338, 140.957 120.023 C 138.277 121.457, 132 118.782, 132 116.206 C 132 111.472, 123.089 109.034, 119.655 112.829 M 118.314 134.950 C 107.915 141.291, 112.704 157.350, 124.943 157.181 C 134.505 157.049, 139.966 147.377, 135.040 139.299 C 131.344 133.236, 124.180 131.373, 118.314 134.950" stroke="none" fill="currentColor" fill-rule="evenodd"/></g></svg>
