<svg xmlns="http://www.w3.org/2000/svg" viewBox="0.8020 1.6027 22.4084 20.7944">
<g transform="translate(-0.7273 2.7197) scale(0.056818)"><path d="M 194.722 2.004 C 193.163 3.230, 191.926 5.461, 191.534 7.754 C 190.920 11.346, 190.582 11.620, 183.319 14.426 C 174.984 17.646, 161.437 25.774, 153.931 32.057 L 149.105 36.098 145.303 33.588 C 137.200 28.239, 127.561 26.518, 123.123 29.627 C 120.458 31.493, 114 44.314, 114 47.736 C 114 50.424, 117.527 52.831, 126.244 56.091 C 130.735 57.771, 132.023 58.686, 131.606 59.901 C 131.305 60.780, 129.624 65.550, 127.870 70.500 C 125.018 78.553, 124.634 80.973, 124.224 93.500 C 123.717 108.994, 124.499 115.679, 129.199 136 C 134.627 159.470, 133.612 171.573, 125.115 184.687 C 120.417 191.938, 99.132 215.200, 97.895 214.435 C 97.393 214.125, 94.492 210.750, 91.449 206.936 C 83.847 197.409, 81.273 197.622, 75.559 208.254 C 73.967 211.216, 73.823 212.316, 74.759 214.370 C 75.762 216.571, 83.639 223.579, 87.606 225.799 C 88.772 226.452, 88.499 227.575, 86.091 232.047 C 79.503 244.285, 78.032 261.726, 82.423 275.552 L 84.845 283.181 80.273 285.204 C 74.693 287.672, 68.004 287.213, 64.136 284.097 C 57.195 278.507, 51.292 277.718, 48.962 282.070 C 45.129 289.234, 56.818 299.947, 71.883 303.078 C 78.679 304.491, 86.620 303.527, 92.432 300.585 L 96.937 298.304 99.218 300.735 C 102.333 304.054, 114.196 311.282, 121.545 314.339 C 133.977 319.509, 157.146 324.156, 179.775 326.018 C 208.718 328.399, 237.317 323.758, 258.500 313.243 C 267.399 308.826, 277.654 302.047, 281.437 298.080 C 283.933 295.462, 285.107 295, 289.253 295 C 297.347 295, 297.933 295.707, 297.852 305.384 C 297.773 314.965, 298.382 317.599, 301.002 319.001 C 306.134 321.748, 311.121 315.208, 313.119 303.110 C 315.234 290.301, 311.411 280.128, 303.859 278.469 C 300.850 277.808, 300.149 275.951, 302.250 274.208 C 302.938 273.637, 307.775 271.976, 313 270.517 C 327.023 266.600, 367.404 254.540, 383.742 249.389 C 393.527 246.305, 398.299 244.310, 398.992 243.016 C 401.233 238.827, 399.575 210.129, 395.538 183.251 C 394.055 173.378, 394.070 172.934, 395.998 169.771 C 399.154 164.595, 398.298 160.817, 393.377 158.196 C 392.080 157.506, 390.823 155.356, 390.148 152.672 C 388.475 146.028, 387.547 145.614, 377.280 146.926 C 372.451 147.543, 367.276 148.294, 365.781 148.596 L 363.062 149.145 363.683 142.323 C 364.025 138.570, 364.750 135.329, 365.294 135.119 C 365.838 134.910, 368.015 133.174, 370.132 131.262 C 376.775 125.260, 377.209 117.004, 371.164 111.618 C 369.071 109.754, 369.069 109.712, 370.966 107.048 C 373.705 103.201, 375.242 96.138, 374.844 89.223 C 374.606 85.092, 374.921 82.857, 375.863 81.979 C 378.917 79.136, 375.418 67, 371.544 67 C 370.914 67, 369.423 64.992, 368.230 62.537 C 363.107 51.993, 353.335 45, 343.721 45 C 338.390 45, 338.362 44.983, 333.437 38.932 C 323.088 26.214, 306.016 14.874, 289.352 9.651 C 273.793 4.774, 264.264 3.565, 240.500 3.453 C 222.978 3.370, 217.394 3.008, 213.068 1.674 C 205.490 -0.662, 197.939 -0.526, 194.722 2.004 M 344.360 55.102 C 349.897 65.367, 354.568 79.041, 356.257 89.924 C 357.352 96.981, 357.857 98.244, 360.011 99.313 C 361.380 99.992, 363.400 102.223, 364.500 104.271 C 365.600 106.319, 366.786 107.996, 367.136 107.997 C 367.486 107.999, 368.595 106.313, 369.600 104.250 C 372.224 98.868, 372.618 86.881, 370.487 77.271 C 366.547 59.505, 357.538 49.132, 344.497 47.345 L 339.830 46.705 344.360 55.102 M 261.500 50.499 C 248.284 53.452, 240.340 57.722, 232.528 66.073 C 222.224 77.089, 217.857 95.228, 221.440 112.131 C 223.342 121.104, 226.844 127.645, 232.656 133.082 C 252.714 151.844, 295.030 149.244, 310.438 128.303 C 320.786 114.238, 321.781 92.900, 312.953 74.402 C 303.594 54.791, 283.686 45.543, 261.500 50.499 M 281.367 91.772 C 278.380 94.192, 277 97.266, 277 101.500 C 277 106.176, 278.350 108.612, 281.980 110.490 C 287.383 113.284, 293.850 111.820, 295.890 107.343 C 298.355 101.933, 296.330 93.317, 292.055 91.030 C 289.131 89.465, 283.755 89.838, 281.367 91.772 M 287.690 96.154 C 285.722 97.255, 285.477 100.077, 287.200 101.800 C 288.951 103.551, 290.785 103.270, 291.961 101.072 C 293.868 97.509, 291.055 94.270, 287.690 96.154 M 365.001 113.996 C 362.403 120.270, 354.504 121.549, 345.936 117.084 C 341.257 114.645, 339.898 115.074, 335.137 120.497 C 331.668 124.448, 331.225 127.601, 333.517 132.033 C 336.834 138.446, 344.939 139.502, 357.355 135.136 C 371.585 130.133, 376.653 120.832, 369.094 113.590 L 366.285 110.899 365.001 113.996 M 358.750 137.804 C 357.319 138.084, 357 139.226, 357 144.073 C 357 147.333, 357.434 150, 357.965 150 C 359.736 150, 361.110 145.979, 360.803 141.697 C 360.559 138.284, 360.160 137.528, 358.750 137.804 M 351.750 139.777 C 350.340 140.075, 350 141.216, 350 145.643 C 350 150.771, 350.151 151.118, 352.250 150.820 C 354.119 150.554, 354.552 149.783, 354.807 146.263 C 355.165 141.316, 354.196 139.260, 351.750 139.777 M 375.500 149.721 C 339.912 154.725, 235 179.633, 235 183.079 C 235 183.583, 236.463 184.604, 238.250 185.348 C 240.973 186.483, 242.229 186.485, 246 185.362 C 255.020 182.676, 258.744 184.475, 257.779 191.052 C 257.369 193.849, 257.555 193.956, 277.757 202.500 C 302.981 213.168, 319.133 219.508, 325.272 221.150 C 329.859 222.377, 330.038 222.338, 333.065 219.453 C 336.719 215.971, 355.715 190.555, 372.829 166.250 L 384.975 149 381.738 149.150 C 379.957 149.232, 377.150 149.489, 375.500 149.721 M 385.760 152.141 C 385.152 153.677, 363.186 184.797, 353.019 198.527 L 346.335 207.555 356.243 213.907 C 361.692 217.401, 372.976 224.892, 381.317 230.554 C 389.659 236.216, 396.674 240.659, 396.906 240.427 C 397.804 239.529, 396.908 216.849, 395.466 204 C 393.682 188.098, 388.186 154.155, 387.073 152.166 C 386.424 151.007, 386.210 151.002, 385.760 152.141 M 392.675 164.569 C 393.448 169.564, 393.744 169.869, 394.581 166.533 C 395.048 164.672, 394.763 163.334, 393.663 162.235 C 392.202 160.773, 392.118 160.970, 392.675 164.569 M 225 189.500 L 220.758 191.664 223.440 193.774 C 227.641 197.078, 236.119 198.598, 242.680 197.222 C 250.038 195.678, 255 192.536, 255 189.418 C 255 186.524, 254.563 186.492, 245.150 188.693 C 238.451 190.261, 237.422 190.277, 233.522 188.874 C 229.469 187.417, 229.019 187.450, 225 189.500 M 251 197.537 C 249.625 198.314, 246.183 199.433, 243.350 200.025 L 238.201 201.100 239.627 207.300 C 244.409 228.081, 255.049 263.494, 259.632 273.882 L 262.006 279.263 283.596 250.382 C 295.470 234.497, 305.880 220.722, 306.729 219.771 C 308.130 218.201, 308.098 217.979, 306.386 217.359 C 305.349 216.984, 293.925 212.199, 281 206.726 C 268.075 201.252, 256.600 196.628, 255.500 196.450 C 254.400 196.271, 252.375 196.760, 251 197.537 M 341.976 213.250 C 337.039 219.934, 331.707 225, 329.623 224.987 C 328.455 224.979, 323.786 223.681, 319.248 222.101 L 310.995 219.228 307.162 223.864 C 303.595 228.179, 283.637 254.653, 270.798 272.102 L 265.205 279.703 269.852 278.836 C 285.716 275.876, 393.986 244.620, 393.989 243 C 393.991 241.998, 346.221 210, 344.724 210 C 344.533 210, 343.296 211.463, 341.976 213.250 M 293.829 285.726 L 289.159 291.500 293.329 292.229 C 299.617 293.327, 301.372 296.065, 300.603 303.575 C 299.510 314.237, 301.823 319.253, 305.843 314.938 C 309.910 310.572, 312.199 295.485, 309.838 288.596 C 308.423 284.465, 305.137 281.463, 301 280.521 C 298.873 280.036, 297.803 280.813, 293.829 285.726 M 52.200 283.200 C 51.540 283.860, 51 284.984, 51 285.697 C 51 288.359, 58.170 294.806, 64.238 297.598 C 69.481 300.011, 71.802 300.481, 78.500 300.483 C 87.603 300.486, 91.653 298.983, 90.022 296.208 C 89.469 295.269, 87.717 293.006, 86.127 291.180 C 83.296 287.928, 83.148 287.883, 78.939 289.016 C 72.866 290.652, 66.890 289.458, 61.054 285.443 C 55.663 281.735, 54.069 281.331, 52.200 283.200" stroke="none" fill="currentColor" fill-rule="evenodd"/></g></svg>
