<svg xmlns="http://www.w3.org/2000/svg" viewBox="3.7344 0.7944 16.5312 22.4112">
<g transform="translate(1.0561 1.0561) scale(0.072959)"><path d="M 49 113 L 49 213 150 213 L 251 213 251 113 L 251 13 150 13 L 49 13 49 113 M 91.440 28.921 C 81.778 31.284, 70.340 40.662, 65.655 50.065 L 63 55.393 63 112.659 C 63 168.912, 63.038 170.027, 65.163 175.705 C 67.896 183.009, 76.134 191.470, 84.500 195.564 L 90.500 198.500 145 198.807 C 183.122 199.021, 201.293 198.768, 205.467 197.964 C 217.803 195.587, 227.364 188.098, 233.203 176.240 L 236.500 169.545 236.775 113.544 L 237.049 57.542 233.943 51.232 C 230.120 43.466, 222.202 35.184, 214.954 31.370 L 209.500 28.500 152 28.337 C 120.375 28.247, 93.123 28.510, 91.440 28.921 M 130.804 50.250 C 130.021 51.643, 129.397 57.618, 129.167 65.940 L 128.795 79.379 124.147 83.565 C 121.591 85.867, 118.063 89.757, 116.307 92.209 C 113.300 96.408, 113.199 96.829, 114.557 99.448 C 115.351 100.977, 116 102.755, 116 103.399 C 116 104.043, 108.800 109.405, 100 115.314 C 88.091 123.312, 84 126.579, 84 128.094 C 84 130.660, 92.699 139.354, 100.215 144.300 C 105.536 147.801, 105.854 148.226, 104.833 150.466 C 103.364 153.691, 104.236 155.538, 107.815 156.786 C 110.274 157.643, 111.692 157.404, 115.994 155.411 C 121.882 152.683, 122.923 152.552, 126.343 154.110 C 129.987 155.771, 131.132 159.256, 130.395 166.448 C 129.760 172.648, 129.795 172.768, 133.493 176.860 C 136.467 180.152, 137.922 181, 140.597 181 C 145.198 181, 146.123 177.491, 143.139 171.350 C 140.793 166.520, 140.444 162.908, 142.035 159.934 C 142.847 158.417, 144.151 158, 148.085 158 C 150.843 158, 154.419 157.317, 156.033 156.483 C 162.132 153.329, 164.025 143.934, 159.477 139.386 C 156.032 135.942, 153.678 136.611, 152.925 141.248 C 152.567 143.451, 151.210 146.003, 149.608 147.488 C 147.016 149.890, 146.361 149.999, 134.698 149.970 C 121.055 149.936, 120.765 148.966, 133.661 146.504 C 142.493 144.818, 146.354 142.523, 146.813 138.686 C 147.062 136.606, 146.616 135.942, 144.635 135.445 C 141.381 134.628, 139.120 135.357, 129.500 140.325 C 122.159 144.115, 120.907 144.445, 114.307 144.324 C 101.659 144.092, 95.653 138.939, 98.476 130.744 C 99.409 128.038, 99.583 126.183, 98.964 125.564 C 97.139 123.739, 98.006 120.173, 100.843 117.839 C 102.406 116.553, 108.028 113.025, 113.335 110 C 121.097 105.576, 122.986 104.054, 122.992 102.218 C 122.997 100.963, 123.755 98.263, 124.678 96.218 L 126.356 92.500 126.996 99.102 C 127.744 106.818, 130.631 112.350, 137.296 118.836 C 142.242 123.650, 146.245 124.288, 146.806 120.354 C 147.031 118.775, 145.993 117.453, 142.883 115.354 C 140.556 113.784, 138.466 111.930, 138.238 111.233 C 137.743 109.724, 146.162 105.741, 148.196 106.522 C 148.958 106.814, 150.087 108.391, 150.704 110.027 C 152.023 113.522, 153.677 113.716, 159 111 C 171.163 104.795, 180.280 114.414, 181.589 134.832 C 182.076 142.420, 181.891 143.901, 180.105 146.720 C 177.693 150.529, 171.699 155.071, 163.770 159.098 C 156.965 162.555, 154.859 165.410, 154.221 172.047 C 153.816 176.270, 154.133 177.485, 156.425 180.490 C 158.661 183.422, 159.730 184, 162.916 184 C 168.423 184, 171.285 181.204, 174.920 172.273 C 179.771 160.350, 181.020 159.303, 187.404 161.808 C 191.302 163.338, 191.311 163.336, 194.119 160.193 C 196.923 157.054, 198.878 151.549, 200.986 140.854 C 202 135.711, 202.562 134.860, 207.299 131.308 C 212.369 127.507, 212.499 127.283, 212.468 122.398 C 212.423 115.478, 206.389 103.234, 196.746 90.500 C 191.711 83.850, 187.165 76.246, 183.176 67.800 C 176.514 53.695, 172.695 48, 169.895 48 C 167.277 48, 163.545 54.171, 160.976 62.750 C 157.943 72.878, 156.545 72.688, 146.376 60.769 C 134.140 46.427, 133.281 45.847, 130.804 50.250 M 135 67 C 135 75.438, 135.663 76.429, 139.455 73.656 C 141.227 72.361, 141.207 72.074, 138.905 65.656 C 137.592 61.995, 136.176 59, 135.759 59 C 135.342 59, 135 62.600, 135 67 M 166.274 66.111 L 164.048 71.175 166.094 75.184 C 168.339 79.585, 168.098 81.670, 165.289 82.172 C 163.746 82.448, 164.041 83.082, 167.150 86.172 L 170.844 89.844 171.538 82.438 C 172.346 73.810, 170.908 60.959, 169.142 61.024 C 168.789 61.037, 167.498 63.326, 166.274 66.111 M 137.314 92.950 C 133.681 95.165, 131.977 97.833, 132.052 101.184 L 132.105 103.500 133.674 101.250 C 135.462 98.687, 139.494 98.275, 142.527 100.347 C 143.612 101.087, 145.721 102.478, 147.214 103.438 L 149.927 105.182 149.326 99.841 C 148.995 96.904, 148.320 93.713, 147.827 92.750 C 146.614 90.385, 141.356 90.485, 137.314 92.950 M 49 254 L 49 287 150 287 L 251 287 251 254 L 251 221 150 221 L 49 221 49 254 M 68 250 L 68 270 74 270 L 80 270 80 262.500 L 80 255 85 255 L 90 255 90 262.500 L 90 270 96.521 270 L 103.042 270 102.771 250.250 L 102.500 230.500 96.297 230.203 L 90.093 229.907 89.797 236.703 L 89.500 243.500 84.750 243.805 L 80 244.110 80 237.055 L 80 230 74 230 L 68 230 68 250 M 172.667 230.667 C 172.300 231.033, 172 240.033, 172 250.667 L 172 270 178 270 L 184 270 184 266.582 C 184 258.584, 186.825 257.815, 189.811 265 L 191.889 270 197.920 270 C 204.868 270, 204.805 271.212, 198.564 257.639 L 194.950 249.778 198.975 245.412 C 201.189 243.010, 203 240.810, 203 240.522 C 203 240.235, 200.805 240, 198.122 240 C 193.414 240, 193.085 240.194, 188.622 245.615 L 184 251.230 184 240.615 L 184 230 178.667 230 C 175.733 230, 173.033 230.300, 172.667 230.667 M 149.942 239.948 C 145.385 241.331, 143.051 243, 141.510 245.980 C 138.138 252.502, 141.227 257.075, 150.276 258.954 C 156.305 260.205, 159.451 262.506, 156.619 263.593 C 155.736 263.932, 153.216 263.272, 151.019 262.127 C 147.095 260.082, 141.691 260.072, 140.433 262.108 C 139.343 263.871, 142.331 267.259, 146.667 269.177 C 151.961 271.518, 158.790 271.022, 163.882 267.925 C 168.852 264.903, 170.681 257.768, 167.250 254.792 C 165.460 253.239, 158.672 250.603, 153.750 249.550 C 150.492 248.853, 150.171 247.398, 153.072 246.477 C 154.396 246.057, 155.840 246.451, 157.074 247.567 C 158.767 249.099, 159.514 249.162, 163.118 248.083 L 167.231 246.851 164.422 243.919 C 162.878 242.307, 160.013 240.543, 158.057 239.999 C 154.019 238.878, 153.481 238.874, 149.942 239.948 M 107.150 252.896 C 107.448 263.865, 107.785 266.106, 109.405 267.896 C 111.749 270.485, 119.414 270.799, 122.777 268.443 C 124.789 267.034, 125 267.034, 125 268.443 C 125 269.664, 126.191 270, 130.527 270 L 136.053 270 135.777 255.250 L 135.500 240.500 130 240.500 L 124.500 240.500 124.215 250.795 C 123.994 258.763, 123.595 261.218, 122.452 261.657 C 119.070 262.954, 118 260.122, 118 249.878 L 118 240 112.400 240 L 106.799 240 107.150 252.896 M 204 240.426 C 204 240.661, 206.475 247.139, 209.500 254.823 C 212.525 262.507, 215 269.242, 215 269.790 C 215 271.039, 212.573 272, 209.418 272 C 207.264 272, 207 272.436, 207 276 L 207 280 211.944 280 C 219.539 280, 220.965 278.136, 227.966 259.051 C 231.285 250.003, 234 242.016, 234 241.301 C 234 240.455, 232.634 240, 230.100 240 C 226.276 240, 226.177 240.093, 225.041 244.750 C 224.404 247.363, 223.297 250.575, 222.582 251.890 C 221.339 254.172, 221.182 253.957, 219.111 247.140 L 216.942 240 210.471 240 C 206.912 240, 204 240.192, 204 240.426" stroke="none" fill="currentColor" fill-rule="evenodd"/></g></svg>
