<svg xmlns="http://www.w3.org/2000/svg" viewBox="0.7944 0.8112 22.4112 22.3776">
<g transform="translate(-0.0262 -0.0400) scale(0.073513)"><path d="M 211.497 52.003 L 187.510 76.006 181.005 75.468 L 174.500 74.931 183.500 77.354 C 200.468 81.922, 212.598 88.866, 224.231 100.670 C 232.755 109.319, 236.020 113.808, 240.929 123.628 C 246.706 135.186, 249.035 144.481, 249.667 158.500 C 250.103 168.174, 249.820 172.366, 248.208 180.130 C 244.674 197.150, 235.576 213.458, 222.864 225.557 C 214.736 233.293, 208.947 237.217, 198.303 242.205 C 185.807 248.061, 173.610 250.348, 158.500 249.667 C 144.485 249.035, 135.193 246.704, 123.809 240.964 C 113.875 235.955, 109.105 232.501, 100.670 224.212 C 88.885 212.630, 81.930 200.487, 77.352 183.500 L 74.926 174.500 75.472 180.983 L 76.018 187.467 51.836 211.664 L 27.655 235.861 31.672 241.180 C 52.440 268.683, 85.447 289.549, 119 296.385 C 170.361 306.850, 221.518 291.150, 257.550 253.865 C 276.596 234.155, 289.020 211.563, 295.478 184.895 C 304.982 145.643, 297.752 102.916, 275.952 69.500 C 270.096 60.523, 260.359 48.580, 253.836 42.374 C 248.988 37.761, 236.905 28, 236.042 28 C 235.735 28, 224.690 38.801, 211.497 52.003 M 131.743 131.757 C 117.034 146.473, 105 158.803, 105 159.157 C 105 160.624, 115.651 162.236, 121.891 161.712 C 143.341 159.914, 159.914 143.341, 161.712 121.891 C 162.238 115.623, 160.622 105, 159.143 105 C 158.782 105, 146.452 117.041, 131.743 131.757" stroke="none" fill="currentColor" fill-rule="evenodd"/></g></svg>
