<svg xmlns="http://www.w3.org/2000/svg" viewBox="0.7944 2.5562 22.4112 18.9006">
<g transform="translate(1.6104 1.6039) scale(0.064935)"><path d="M 66.259 30.664 C 58.559 32.289, 59.451 45.926, 68.490 64.774 C 70.936 69.875, 74.406 76.175, 76.202 78.774 C 77.998 81.373, 79.349 84.175, 79.205 85 C 78.089 91.401, 78.556 91.275, 71.741 87.021 C 59.072 79.113, 41.802 75.429, 29.500 78.011 L 23.500 79.270 34.500 81.727 C 47.782 84.695, 61.051 89.659, 70.500 95.196 C 74.350 97.452, 77.560 99.343, 77.633 99.399 C 77.706 99.454, 78.093 101.024, 78.492 102.886 L 79.219 106.272 73.838 103.194 C 54.344 92.040, 26.404 89.890, 10.294 98.303 L 6.087 100.500 24.794 100.577 C 41.625 100.647, 44.452 100.913, 53 103.231 C 58.225 104.648, 63.850 106.365, 65.500 107.046 L 68.500 108.286 65 109.179 C 63.075 109.670, 55.200 110.175, 47.500 110.302 C 35.722 110.495, 32.626 110.883, 27.994 112.746 C 22.819 114.828, 15.206 120.539, 16.234 121.568 C 16.491 121.825, 19.483 121.323, 22.882 120.452 C 29.367 118.790, 44.545 117.275, 49.267 117.818 C 53.032 118.251, 51.687 120, 47.589 120 C 43.949 120, 38.695 123.134, 35.816 127.023 C 30.942 133.607, 33.455 143.639, 41.045 147.905 C 44.268 149.716, 46.285 150.110, 50.966 149.840 C 55.923 149.555, 57.207 149.846, 59.184 151.703 C 64.817 156.995, 72.898 158.079, 78.646 154.312 L 81 152.770 81 217.435 C 81 287.613, 80.897 286.265, 86.472 288.805 C 88.426 289.696, 107.156 290, 160 290 C 212.844 290, 231.574 289.696, 233.528 288.805 C 239.103 286.265, 239 287.613, 239 217.435 L 239 152.770 241.354 154.312 C 247.102 158.079, 255.183 156.995, 260.816 151.703 C 262.793 149.846, 264.077 149.555, 269.034 149.840 C 276.695 150.282, 282.121 147.447, 285 141.500 C 287.519 136.297, 287.518 133.363, 284.998 129.229 C 282.692 125.446, 274.646 120, 271.363 120 C 268.040 120, 267.517 118.188, 270.733 117.818 C 275.455 117.275, 290.633 118.790, 297.118 120.452 C 300.517 121.323, 303.483 121.850, 303.709 121.624 C 304.714 120.619, 296.992 114.779, 292 112.768 C 287.394 110.913, 284.224 110.510, 272.500 110.287 C 264.800 110.141, 256.925 109.631, 255 109.154 L 251.500 108.286 254.500 107.044 C 256.150 106.361, 262 104.623, 267.500 103.182 C 276.494 100.825, 279.333 100.559, 295.713 100.531 L 313.926 100.500 309.491 98.245 C 293.022 89.872, 266.391 91.814, 247.205 102.787 C 244.842 104.138, 242.745 105.076, 242.543 104.871 C 242.342 104.667, 242.414 103.263, 242.705 101.752 C 243.758 96.270, 265.254 86.203, 285.500 81.710 L 296.500 79.270 290.500 78.009 C 278.569 75.502, 260.708 79.109, 249.257 86.338 C 243.548 89.942, 242.705 89.961, 241.998 86.500 C 241.534 84.230, 242.035 82.527, 244.059 79.500 C 253.487 65.402, 260.663 43.763, 258.617 35.608 C 258.264 34.205, 257.021 32.546, 255.853 31.922 C 249.822 28.694, 230.370 32.676, 214.953 40.294 L 206.405 44.517 199.928 41.824 C 185.797 35.948, 177.919 34.510, 160 34.538 C 142 34.565, 133.802 36.074, 119.875 41.920 L 113.249 44.701 109.521 42.451 C 97.794 35.374, 74.287 28.969, 66.259 30.664 M 119.444 80.886 C 117.213 81.899, 113.745 84.648, 111.737 86.994 C 102.773 97.467, 105.261 111.939, 117.306 119.386 C 132.646 128.870, 152.960 114.590, 149.600 96.683 C 147.134 83.534, 131.567 75.380, 119.444 80.886 M 183.444 80.886 C 174.377 85.005, 168.453 96.615, 170.883 105.505 C 172.482 111.352, 175.400 115.574, 179.898 118.551 C 189.108 124.646, 199.160 123.759, 207.005 116.159 C 212.427 110.906, 214.521 105.312, 213.721 98.219 C 212.146 84.240, 196.181 75.101, 183.444 80.886 M 151.250 128.031 C 150.012 128.529, 149 129.625, 149 130.468 C 149 131.756, 150.845 132, 160.583 132 C 169.403 132, 172.068 131.702, 171.754 130.750 C 170.987 128.422, 166.527 127.029, 160 127.078 C 156.425 127.105, 152.488 127.534, 151.250 128.031 M 106.223 169.557 C 101.409 172.928, 102.874 175.350, 120.239 192.739 L 136.477 209 120.239 225.261 C 107.231 238.286, 104 242.063, 104 244.238 C 104 248.012, 107.947 250.609, 111.183 248.964 C 114.433 247.312, 146.820 215.094, 148.593 211.750 C 149.871 209.341, 149.871 208.659, 148.593 206.250 C 146.860 202.981, 114.465 170.703, 111.316 169.107 C 108.592 167.726, 108.871 167.702, 106.223 169.557 M 160.997 240.503 C 159.168 242.707, 159.477 247.144, 161.566 248.672 C 162.968 249.697, 169.457 250, 190.036 250 C 214.588 250, 216.821 249.856, 218.345 248.171 C 220.281 246.032, 220.516 241.916, 218.800 240.200 C 217.924 239.324, 210.116 239, 189.922 239 C 166.515 239, 162.052 239.232, 160.997 240.503" stroke="none" fill="currentColor" fill-rule="evenodd"/></g></svg>
