<svg xmlns="http://www.w3.org/2000/svg" viewBox="0.8103 0.8280 22.3944 22.3440">
<g transform="translate(-0.0965 -0.0739) scale(0.080442)"><path d="M 128.500 27.622 C 83.670 35.709, 46.859 67.328, 32.594 110.002 C 27.358 125.664, 25.679 137.652, 26.361 154.500 C 27.016 170.702, 29.284 181.937, 34.593 195.288 C 41.513 212.692, 49.694 224.955, 63.421 238.500 C 81.592 256.430, 104.314 268.236, 128.990 272.567 C 140.141 274.525, 161.177 274.483, 172 272.482 C 219.686 263.665, 258.002 228.451, 270.454 182 C 289.222 111.988, 243.172 40.026, 171.615 27.548 C 160.596 25.627, 139.362 25.663, 128.500 27.622 M 141 40.752 C 136.732 41.059, 126.842 42.781, 121.750 44.103 C 117.304 45.258, 117.169 46.152, 120.124 54.901 C 122.213 61.086, 122.300 61.181, 125.374 60.615 C 127.093 60.299, 132.169 59.487, 136.653 58.811 L 144.806 57.583 145.392 54.042 C 146.145 49.489, 146.047 43.914, 145.180 42 C 144.727 41.001, 143.330 40.584, 141 40.752 M 154.478 40.855 C 153.800 41.533, 153.884 51.171, 154.599 54.747 C 155.171 57.604, 155.493 57.774, 161.499 58.390 C 164.964 58.745, 169.906 59.669, 172.481 60.444 L 177.163 61.853 178.525 58.594 C 180.419 54.062, 182.365 46.032, 181.725 45.392 C 179.950 43.616, 155.747 39.586, 154.478 40.855 M 99 53.102 C 92.805 56.468, 89.526 58.566, 84.144 62.611 C 83.949 62.757, 85.941 65.718, 88.571 69.189 C 91.201 72.660, 93.478 75.667, 93.631 75.871 C 93.784 76.075, 97.131 74.180, 101.069 71.661 C 105.008 69.141, 109.784 66.566, 111.684 65.939 C 113.583 65.313, 114.932 64.282, 114.680 63.650 C 110.105 52.134, 108.599 49.002, 107.644 49.014 C 107.015 49.022, 103.125 50.862, 99 53.102 M 188.147 56.457 C 184.560 65.004, 184.560 65, 186.266 65 C 187.442 65, 197.022 70.307, 203.169 74.363 L 205.839 76.124 210.933 69.395 L 216.027 62.666 211.764 59.790 C 206.075 55.954, 196.010 50.360, 193.397 49.584 C 191.552 49.035, 190.909 49.877, 188.147 56.457 M 70.706 74.951 C 67.605 78.300, 63.651 83.100, 61.919 85.618 C 58.290 90.892, 58.204 90.716, 67.188 96.390 L 72.876 99.982 75.116 96.741 C 76.348 94.959, 79.821 90.650, 82.835 87.167 L 88.314 80.834 82.329 74.849 L 76.343 68.863 70.706 74.951 M 144.940 76.250 C 144.908 76.938, 144.545 79.525, 144.134 82 L 143.388 86.500 149.614 86.168 C 154.978 85.882, 155.901 86.090, 156.287 87.668 C 156.881 90.099, 156.076 81.272, 155.383 77.750 C 154.880 75.196, 154.490 75, 149.921 75 C 146.683 75, 144.980 75.427, 144.940 76.250 M 157.195 94.500 C 157.215 96.150, 157.439 96.704, 157.693 95.731 C 157.947 94.758, 157.930 93.408, 157.656 92.731 C 157.382 92.054, 157.175 92.850, 157.195 94.500 M 50.182 106.250 C 47.064 113.771, 43.560 124.933, 44.157 125.437 C 44.561 125.777, 58.894 129, 60.004 129 C 60.421 129, 61.286 126.921, 61.926 124.379 C 62.566 121.838, 64.423 116.817, 66.054 113.221 C 67.684 109.626, 68.901 106.583, 68.759 106.459 C 68.220 105.991, 54.030 99, 53.618 99 C 53.381 99, 51.834 102.263, 50.182 106.250 M 158.158 101 C 158.158 102.375, 158.385 102.938, 158.662 102.250 C 158.940 101.563, 158.940 100.438, 158.662 99.750 C 158.385 99.063, 158.158 99.625, 158.158 101 M 159.158 108 C 159.158 109.375, 159.385 109.938, 159.662 109.250 C 159.940 108.563, 159.940 107.438, 159.662 106.750 C 159.385 106.063, 159.158 106.625, 159.158 108 M 160.158 115 C 160.158 116.375, 160.385 116.938, 160.662 116.250 C 160.940 115.563, 160.940 114.438, 160.662 113.750 C 160.385 113.063, 160.158 113.625, 160.158 115 M 161.195 121.500 C 161.215 123.150, 161.439 123.704, 161.693 122.731 C 161.947 121.758, 161.930 120.408, 161.656 119.731 C 161.382 119.054, 161.175 119.850, 161.195 121.500 M 162.158 128 C 162.158 129.375, 162.385 129.938, 162.662 129.250 C 162.940 128.563, 162.940 127.438, 162.662 126.750 C 162.385 126.063, 162.158 126.625, 162.158 128 M 163.158 135 C 163.158 136.375, 163.385 136.938, 163.662 136.250 C 163.940 135.563, 163.940 134.438, 163.662 133.750 C 163.385 133.063, 163.158 133.625, 163.158 135 M 41.681 141.516 C 40.964 149.190, 41.880 163, 43.106 163 C 43.553 163, 47.312 162.495, 51.459 161.878 L 59 160.757 59 148.937 C 59 142.437, 58.636 136.893, 58.191 136.618 C 57.746 136.343, 53.991 135.811, 49.847 135.435 L 42.312 134.752 41.681 141.516 M 164.079 141.583 C 164.127 142.748, 164.364 142.985, 164.683 142.188 C 164.972 141.466, 164.936 140.603, 164.604 140.271 C 164.272 139.939, 164.036 140.529, 164.079 141.583 M 146.159 144.601 C 142.739 146.996, 141.715 150.548, 143.466 153.935 C 147.082 160.926, 157 158.434, 157 150.534 C 157 148.064, 156.285 146.583, 154.365 145.073 C 151.200 142.583, 149.204 142.468, 146.159 144.601 M 165.079 152.583 C 165.127 153.748, 165.364 153.985, 165.683 153.188 C 165.972 152.466, 165.936 151.603, 165.604 151.271 C 165.272 150.939, 165.036 151.529, 165.079 152.583 M 50.532 170.662 C 47.250 171.454, 44.456 172.211, 44.323 172.343 C 43.641 173.026, 47.603 185.412, 50.543 191.787 L 53.904 199.074 61.202 195.420 C 65.216 193.410, 68.618 191.662, 68.763 191.536 C 68.908 191.411, 67.921 188.809, 66.570 185.755 C 65.220 182.701, 63.382 177.682, 62.486 174.601 C 60.641 168.253, 60.586 168.235, 50.532 170.662 M 105.667 215.667 C 105.300 216.033, 105 218.958, 105 222.167 L 105 228 111.500 228 L 118 228 118 221.500 L 118 215 112.167 215 C 108.958 215, 106.033 215.300, 105.667 215.667 M 131 221.452 L 131 228 137.548 228 L 144.095 228 143.798 221.750 L 143.500 215.500 137.250 215.202 L 131 214.905 131 221.452 M 156.667 215.667 C 156.300 216.033, 156 218.958, 156 222.167 L 156 228 162.500 228 L 169 228 169 221.500 L 169 215 163.167 215 C 159.958 215, 157.033 215.300, 156.667 215.667 M 182 221.452 L 182 228 188.548 228 L 195.095 228 194.798 221.750 L 194.500 215.500 188.250 215.202 L 182 214.905 182 221.452" stroke="none" fill="currentColor" fill-rule="evenodd"/></g></svg>
