<svg xmlns="http://www.w3.org/2000/svg" viewBox="2.0486 0.8120 19.9030 22.3804">
<g transform="translate(1.0909 1.0727) scale(0.054545)"><path d="M 196.500 27.349 L 190.500 37.500 183 38.229 C 120.529 44.303, 65.836 88.078, 45.983 147.895 C 32.208 189.396, 34.804 231.768, 53.493 270.500 C 73.928 312.853, 110.130 343.368, 155.500 356.484 C 164.491 359.084, 177.515 361.350, 190.250 362.533 L 197 363.159 197.008 373.330 L 197.015 383.500 203.258 373 L 209.500 362.500 217 361.771 C 272.017 356.422, 321.339 321.901, 345.977 271.500 C 365.169 232.238, 367.928 189.808, 354.015 147.888 C 336.634 95.520, 293.413 55.696, 239.180 42.079 C 231.317 40.104, 221.680 38.579, 209.784 37.425 L 203.067 36.774 202.784 26.986 L 202.500 17.198 196.500 27.349 M 203 110.466 L 203 142 206.750 142.009 C 208.813 142.014, 215 143.580, 220.500 145.488 L 230.500 148.959 269.750 148.979 C 291.337 148.991, 308.991 148.662, 308.979 148.250 C 308.968 147.838, 307.280 144.522, 305.229 140.882 C 291.526 116.564, 268.358 96.617, 243 87.303 C 229.551 82.364, 225.602 81.479, 208.250 79.523 L 203 78.931 203 110.466 M 159.722 85.611 C 159.386 85.948, 155.712 87.700, 151.559 89.506 C 131.836 98.079, 112.362 113.943, 101.527 130.261 C 99.432 133.418, 97.331 136, 96.858 136 C 96.386 136, 96 136.577, 96 137.283 C 96 138.544, 89.206 152.023, 88.078 153 C 87.760 153.275, 87.341 154.620, 87.147 155.988 C 86.952 157.357, 85.972 160.732, 84.968 163.488 C 83.964 166.245, 82.450 172.100, 81.604 176.500 C 80.043 184.618, 78.303 203.672, 78.957 205.500 C 79.153 206.050, 79.688 210.057, 80.145 214.405 C 80.918 221.752, 81.486 223.949, 82.347 222.917 C 83.295 221.780, 161.012 88.132, 161.568 86.683 C 162.191 85.060, 160.978 84.356, 159.722 85.611 M 284.500 233.703 C 266.350 264.861, 248.265 295.885, 244.312 302.645 L 237.123 314.936 243.379 312.582 C 246.819 311.287, 251.560 309.245, 253.914 308.044 C 256.268 306.843, 258.802 306.094, 259.546 306.379 C 260.313 306.673, 260.717 306.379, 260.480 305.699 C 260.250 305.040, 263.072 302.700, 266.752 300.500 C 277.175 294.267, 295.131 275.710, 302.573 263.480 C 311.576 248.685, 317.860 231.310, 319.744 216 C 321.190 204.257, 320.087 176.953, 318.170 177.025 C 317.802 177.039, 302.650 202.544, 284.500 233.703 M 91 251.819 C 91 253.225, 100.665 268.880, 105.008 274.510 C 118.088 291.465, 138.598 306.245, 159 313.421 C 163.125 314.871, 167.175 316.328, 168 316.658 C 168.825 316.987, 170.400 317.370, 171.500 317.507 C 172.600 317.644, 178 318.484, 183.500 319.373 C 189 320.261, 194.287 320.991, 195.250 320.994 C 196.880 321, 197 318.836, 197 289.500 L 197 258 193.250 257.979 C 191.188 257.967, 185.675 256.531, 181 254.788 L 172.500 251.618 131.750 251.287 C 109.336 251.105, 91 251.344, 91 251.819" stroke="none" fill="currentColor" fill-rule="evenodd"/></g></svg>
