<svg xmlns="http://www.w3.org/2000/svg" viewBox="0.7899 0.8112 22.4952 22.3776">
<g transform="translate(1.9875 2.0000) scale(0.066708)"><path d="M 130.798 1.529 C 107.937 4.647, 87.290 12.591, 66.947 26.096 C 54.311 34.484, 34.509 54.274, 26.148 66.868 C -3.523 111.567, -7.627 166.456, 15.080 214.912 C 20.264 225.974, 30.240 240.878, 38.189 249.434 L 44.531 256.262 96.836 203.455 L 149.141 150.648 202.136 203.574 L 255.131 256.500 261.610 249.588 C 282.284 227.532, 296.857 193.621, 298.727 163.217 C 299.041 158.111, 299.681 153.697, 300.149 153.408 C 300.617 153.119, 301 151.307, 301 149.382 C 301 147.457, 300.615 146.120, 300.145 146.410 C 299.675 146.701, 299.035 142.790, 298.723 137.719 C 297.257 113.889, 288.499 88.937, 273.853 66.868 C 261.794 48.696, 236.047 25.569, 217.478 16.230 C 190.557 2.691, 160.126 -2.470, 130.798 1.529 M 0.252 150.500 C 0.263 152.700, 0.468 153.482, 0.707 152.238 C 0.946 150.994, 0.937 149.194, 0.687 148.238 C 0.437 147.282, 0.241 148.300, 0.252 150.500 M 129.500 215 L 110.520 234 149.500 234 L 188.480 234 169.500 215 C 159.061 204.550, 150.061 196, 149.500 196 C 148.939 196, 139.939 204.550, 129.500 215 M 72.585 271.913 L 68.764 275.826 72.685 278.301 C 85.483 286.380, 106.364 294.215, 124 297.556 C 138.226 300.251, 163.011 300.070, 177.728 297.165 C 191.497 294.446, 206.696 289.260, 218.071 283.399 C 231.507 276.475, 231.290 276.777, 226.289 272.012 L 222.077 268 149.242 268 L 76.406 268 72.585 271.913" stroke="none" fill="currentColor" fill-rule="evenodd"/></g></svg>
