<svg xmlns="http://www.w3.org/2000/svg" viewBox="0.8045 10.3230 22.3910 3.3555">
<g transform="translate(-0.4534 8.8893) scale(0.020704)"><path d="M 119 147.500 L 119 217 140.490 217 L 161.981 217 162.240 168.889 L 162.500 120.779 192.380 168.889 L 222.259 217 243.630 217 L 265 217 265 147.500 L 265 78 243.510 78 L 222.019 78 221.760 125.793 L 221.500 173.585 192 125.797 L 162.500 78.009 140.750 78.005 L 119 78 119 147.500 M 289 92 L 289 106 310 106 L 331 106 331 92 L 331 78 310 78 L 289 78 289 92 M 907 103.583 C 907 117.654, 906.663 128.994, 906.250 128.783 C 894.359 122.698, 888.437 121.059, 878.218 121.024 C 865.170 120.981, 853.961 126.118, 843.752 136.821 C 825.170 156.302, 825.332 186.172, 844.122 204.962 C 854.439 215.279, 868.761 220.755, 882.500 219.636 C 889.577 219.060, 899.564 216.171, 903.582 213.538 C 906.012 211.946, 907 212.416, 907 215.167 C 907 216.885, 908.288 217, 927.500 217 L 948 217 948 147.500 L 948 78 927.500 78 L 907 78 907 103.583 M 499 101.500 L 499 111 488 111 L 477 111 477 118 L 477 125 488 125 L 499 125 499 171 L 499 217 520 217 L 541 217 541 171 L 541 125 552.500 125 L 564 125 564 118 L 564 111 552.500 111 L 541 111 541 101.500 L 541 92 520 92 L 499 92 499 101.500 M 1012.500 118.932 C 991.573 122.341, 974.560 133.995, 966.395 150.514 C 962.819 157.750, 962.514 159.052, 962.199 168.409 C 961.922 176.661, 962.238 179.579, 963.934 184.419 C 968.479 197.388, 978.491 208.188, 992.260 214.975 C 1031.628 234.379, 1080.438 212.007, 1083.697 173.065 C 1084.802 159.860, 1079.617 147.328, 1068.520 136.380 C 1060.637 128.601, 1051.137 123.216, 1040.500 120.495 C 1033.139 118.612, 1019.230 117.836, 1012.500 118.932 M 604.189 120.465 C 591.709 123.301, 578.601 130.897, 569.903 140.334 C 565.381 145.241, 560.069 156.729, 558.811 164.324 C 554.790 188.586, 573.917 213.210, 602.500 220.571 C 611.772 222.959, 628.186 223.001, 637 220.659 C 650.984 216.944, 664.584 208.456, 671.277 199.266 C 674.464 194.891, 679 186.829, 679 185.540 C 679 185.243, 669.833 185, 658.629 185 L 638.258 185 637.558 191.250 C 636.619 199.624, 633.911 205.474, 629.818 207.970 C 620.250 213.806, 609.443 210.587, 604.880 200.541 C 603.411 197.308, 603.040 193.952, 603.022 183.750 L 603 171 642.561 171 L 682.123 171 681.431 166.250 C 678.473 145.943, 663.529 129.584, 641 121.993 C 632.544 119.143, 613.487 118.353, 604.189 120.465 M 422.347 121.095 C 414.551 122.397, 407.082 125.542, 401.250 129.977 L 396 133.969 396 129.544 C 396 127.110, 395.584 124.861, 395.075 124.546 C 394.566 124.232, 385.116 124.276, 374.075 124.645 L 354 125.316 354 171.158 L 354 217 375 217 L 396 217 396.004 184.750 C 396.008 148.817, 395.942 149.193, 403.165 143.691 C 410.502 138.102, 420.445 138.116, 427.859 143.726 C 434.627 148.848, 434.953 150.776, 434.978 185.750 L 435 217 455.500 217 L 476 217 475.976 187.750 C 475.962 171.390, 475.498 156.536, 474.924 154.042 C 471.221 137.975, 457.388 125.270, 439.500 121.507 C 431.766 119.880, 429.886 119.835, 422.347 121.095 M 762.581 121.059 C 754.954 122.336, 746.910 125.712, 741.205 130.030 L 736 133.969 736 129.544 C 736 127.110, 735.584 124.861, 735.075 124.546 C 734.566 124.232, 725.116 124.276, 714.075 124.645 L 694 125.316 694 171.158 L 694 217 715 217 L 736 217 736 185.468 C 736 150.322, 736.128 149.513, 742.526 144.239 C 752.983 135.620, 768.383 139.096, 773.447 151.218 C 774.738 154.308, 775 160.175, 775 185.968 L 775 217 795.552 217 L 816.104 217 815.797 185.250 C 815.435 147.750, 815.165 146.525, 804.799 135.444 C 797.846 128.011, 790.103 123.747, 779.500 121.511 C 771.815 119.890, 769.870 119.838, 762.581 121.059 M 289 171 L 289 217 310 217 L 331 217 331 171 L 331 125 310 125 L 289 125 289 171 M 614.500 131.502 C 606.889 134.193, 603.017 141.013, 603.006 151.750 L 603 157 620.629 157 L 638.258 157 637.560 149.750 C 636.560 139.375, 633.255 134.311, 625.536 131.326 C 621.514 129.771, 619.296 129.806, 614.500 131.502 M 1016.021 131.062 C 1012.446 132.566, 1010.082 134.948, 1007.647 139.500 C 1005.670 143.196, 1005.482 145.266, 1005.174 166.706 C 1004.956 181.846, 1005.247 191.873, 1006.011 195.554 C 1008.171 205.956, 1016.474 211.928, 1025.923 209.876 C 1030.791 208.819, 1034.158 206.053, 1036.750 200.980 C 1038.918 196.737, 1038.999 195.610, 1038.978 170.038 C 1038.953 140.331, 1038.433 137.580, 1031.958 132.970 C 1028.265 130.340, 1020.067 129.358, 1016.021 131.062 M 883.415 137.366 C 879.446 139.166, 876.288 143.218, 874.932 148.251 C 874.275 150.693, 873.982 160.248, 874.179 172.871 C 874.467 191.410, 874.705 193.855, 876.523 197 C 878.833 200.998, 885.826 205, 890.500 205 C 895.174 205, 902.167 200.998, 904.477 197 C 906.311 193.827, 906.528 191.448, 906.795 171.500 C 907.081 150.219, 907.015 149.355, 904.795 145.059 C 903.533 142.616, 901.281 139.729, 899.791 138.644 C 896.349 136.137, 887.628 135.456, 883.415 137.366" stroke="none" fill="currentColor" fill-rule="evenodd"/></g></svg>
