<svg xmlns="http://www.w3.org/2000/svg" viewBox="0.8069 0.8213 22.4386 22.3601">
<g transform="translate(2.0000 1.9917) scale(0.050000)"><path d="M 186 1.132 C 134.242 4.009, 81.591 30.584, 47.903 70.835 C 13.793 111.589, -3.428 164.223, 0.845 214.660 C 7.732 295.957, 59.243 362.664, 135.417 388.929 C 175.516 402.756, 220.326 403.245, 260.500 390.295 C 325.783 369.250, 375.468 316.964, 392.879 250.984 C 396.408 237.608, 398.945 221.338, 399.132 210.872 C 399.237 204.997, 399.413 204.211, 400 207 C 400.480 209.281, 400.730 206.670, 400.718 199.500 C 400.706 192.446, 400.478 190.114, 400.082 193 C 399.611 196.432, 399.297 194.534, 398.759 185 C 395.792 132.472, 367.409 78.456, 325.013 44.658 C 284.940 12.711, 238.618 -1.793, 186 1.132 M 213.500 34.556 C 211.850 35.405, 209.825 36.926, 209 37.935 C 207.708 39.516, 205.416 39.849, 192.500 40.337 C 168.207 41.254, 148.405 46.552, 125.883 58.160 C 83.831 79.833, 53.436 119.775, 42.883 167.230 C 40.213 179.238, 39.197 208.163, 40.983 221.362 C 50.068 288.530, 100.678 342.767, 167.660 357.116 C 180.141 359.790, 206.819 360.773, 220.423 359.061 C 285.275 350.898, 339.979 301.904, 355.413 238.161 C 358.141 226.898, 360.322 208.818, 359.833 201.534 L 359.500 196.568 344 215.759 L 328.500 234.951 311.128 234.975 C 291.893 235.003, 292.825 235.464, 298.778 228.864 L 301.155 226.229 298.435 219.364 C 291.937 202.967, 281.450 185.024, 272.833 175.563 L 268.337 170.625 272.419 168.563 C 275.155 167.180, 277.130 165.210, 278.412 162.584 C 280.148 159.027, 280.194 158.295, 278.912 154.616 C 276.410 147.438, 268.591 144.092, 262.128 147.434 C 258.201 149.465, 256.694 151.602, 256.056 156.043 L 255.500 159.912 248.500 155.333 C 239.065 149.160, 227.364 143.702, 216.495 140.403 C 208.522 137.983, 205.812 137.663, 192.648 137.587 L 177.796 137.500 183.148 132.718 C 194.258 122.793, 206.769 116.811, 224.500 112.947 C 239.512 109.676, 266.548 109.515, 277.750 112.630 L 285 114.646 285 110.783 C 285 108.659, 284.094 105.145, 282.987 102.975 C 279.309 95.764, 275.818 94.588, 247.150 90.898 C 232.610 89.027, 222.401 84.507, 215.526 76.898 L 211.720 72.685 219.294 70.011 C 223.460 68.541, 228.361 66.208, 230.184 64.826 C 233.412 62.381, 233.575 62.361, 236.332 64.044 C 239.787 66.152, 247.067 67.601, 261.257 69.005 C 285.927 71.446, 299.298 80.029, 306.050 97.761 C 308.917 105.291, 309.587 115.087, 307.658 121.296 L 306.168 126.093 316.359 136.296 C 321.964 141.908, 328.869 149.903, 331.704 154.061 C 337.389 162.400, 346.467 179.311, 350.058 188.250 C 352.325 193.893, 352.442 194, 356.328 194 L 360.288 194 359.606 185.750 C 355.639 137.769, 327.715 91.598, 286.805 65.375 C 272.121 55.963, 247.509 45.704, 234.472 43.561 C 231.241 43.030, 230.176 42.294, 229.090 39.842 C 228.218 37.872, 226.272 36.119, 223.618 34.914 C 218.588 32.630, 217.330 32.585, 213.500 34.556 M 241.500 115.443 C 240.950 115.659, 238.700 116.159, 236.500 116.552 L 232.500 117.269 235.500 118.245 C 237.150 118.782, 245.700 119.316, 254.500 119.432 C 265.471 119.576, 272.641 120.170, 277.312 121.321 C 281.059 122.245, 284.434 122.978, 284.812 122.951 C 285.190 122.924, 282.350 121.258, 278.500 119.250 L 271.500 115.599 257 115.324 C 249.025 115.173, 242.050 115.227, 241.500 115.443 M 112.939 140.367 C 104.073 142.754, 98.539 148.791, 97.365 157.356 C 96.074 166.770, 101.272 175.724, 110.179 179.435 L 113.858 180.967 117.013 176.984 L 120.168 173 117.534 173 C 111.271 173, 106 167.516, 106 161 C 106 151.669, 116.045 145.960, 124.095 150.715 C 127.294 152.605, 130.654 159.855, 129.601 162.597 C 129.003 164.157, 137.131 157.505, 137.811 155.879 C 138.307 154.693, 135.010 148.756, 132.136 145.661 C 127.058 140.190, 120.407 138.356, 112.939 140.367 M 185.399 141.596 C 180.664 144.105, 162.556 156.503, 156.574 161.331 L 153.648 163.692 158.476 165.337 L 163.303 166.982 172.902 159.627 C 184.644 150.628, 188.863 148.009, 191.622 148.004 C 193.939 148, 206.125 155.627, 215.297 162.821 L 221.093 167.368 226.253 164.842 L 231.412 162.316 219.293 154.196 C 205.841 145.184, 194.761 139, 192.066 139 C 191.093 139, 188.093 140.168, 185.399 141.596 M 185.926 164.767 C 183.411 166.270, 179.061 169.198, 176.260 171.273 L 171.168 175.047 172.834 179.013 C 173.750 181.195, 174.851 182.984, 175.279 182.990 C 175.708 182.995, 178.370 181.173, 181.195 178.940 C 188.113 173.471, 191.734 171.716, 194.610 172.438 C 195.927 172.769, 200.164 176.020, 204.025 179.663 C 207.887 183.306, 211.165 186.110, 211.310 185.893 C 211.454 185.677, 212.413 183.070, 213.441 180.100 L 215.309 174.700 211.904 171.877 C 207.150 167.934, 195.678 161.997, 192.854 162.017 C 191.559 162.026, 188.442 163.264, 185.926 164.767 M 265.672 182 C 265.281 184.475, 264.225 188.887, 263.326 191.804 C 261.574 197.492, 258.559 200, 253.472 200 C 250.979 200, 251.067 200.169, 255.172 203.295 C 257.553 205.107, 259.633 207.497, 259.795 208.608 C 259.957 209.718, 258.712 213.245, 257.029 216.446 C 254.187 221.848, 254.128 222.159, 256.207 220.779 C 257.438 219.961, 259.920 217.089, 261.721 214.396 C 263.522 211.703, 265.366 209.043, 265.818 208.484 C 269.013 204.541, 270.026 189.333, 267.615 181.500 L 266.384 177.500 265.672 182 M 154.389 186.572 C 155.425 189.271, 153.125 192.257, 150.411 191.738 C 148.340 191.342, 148 191.661, 148 194.004 C 148 197.499, 151.214 201.586, 154.638 202.445 C 163.597 204.694, 169.536 192.713, 162.288 187.012 C 159.124 184.523, 153.482 184.209, 154.389 186.572 M 226.545 187.324 C 227.256 190.155, 224.870 192.461, 222.005 191.712 C 220.354 191.280, 220 191.677, 220 193.959 C 220 197.494, 223.198 201.582, 226.638 202.445 C 232.062 203.807, 238 198.856, 238 192.973 C 238 189.704, 232.724 185, 229.058 185 C 226.317 185, 226.029 185.267, 226.545 187.324 M 112.148 192.282 C 110.834 195.050, 109.637 199.943, 109.305 203.903 C 108.811 209.798, 109.061 211.413, 111.116 215.592 C 113.550 220.541, 123.011 230.865, 127.137 233.073 L 129.425 234.298 127.552 231.399 C 126.522 229.805, 124.626 226.933, 123.339 225.018 C 119.220 218.886, 120.100 216.809, 130.500 208.119 C 133.969 205.220, 134.168 204.850, 132 205.332 C 117.740 208.504, 115.708 207.371, 114.959 195.833 L 114.418 187.500 112.148 192.282 M 0.374 200.500 C 0.376 206.550, 0.541 208.896, 0.740 205.713 C 0.939 202.531, 0.937 197.581, 0.736 194.713 C 0.535 191.846, 0.372 194.450, 0.374 200.500 M 86.864 213.728 C 79.514 222.378, 72.447 230.703, 71.161 232.228 L 68.822 235 81.624 235 L 94.425 235 89.581 230.082 L 84.736 225.164 88.521 218.332 C 90.602 214.574, 94.252 208.463, 96.632 204.750 C 99.012 201.037, 100.795 198, 100.594 198 C 100.393 198, 94.215 205.077, 86.864 213.728 M 201.246 204.552 L 194.023 206.907 186.419 204.916 C 178.193 202.761, 175.595 203.019, 173.915 206.158 C 172.659 208.506, 174.079 212.856, 176.948 215.453 C 178.527 216.882, 178.847 216.890, 179.979 215.525 C 181.601 213.571, 185.392 213.562, 187.007 215.508 C 187.752 216.406, 188.038 218.381, 187.712 220.386 C 187.245 223.263, 187.525 223.918, 189.630 224.877 C 194.929 227.292, 200 224.879, 200 219.943 C 200 216.800, 203.331 212.613, 205.313 213.266 C 205.966 213.482, 206.995 214.643, 207.601 215.847 C 209.406 219.435, 209.768 219.375, 211.930 215.137 C 214.781 209.550, 214.591 206.557, 211.234 204.167 C 208.469 202.198, 208.467 202.198, 201.246 204.552 M 282.788 213.239 C 281.205 219.971, 278.331 225.621, 273.373 231.750 L 270.744 235 276.337 235 C 281.080 235, 282.109 234.665, 283.110 232.795 C 284.722 229.782, 286.011 215.406, 285.109 210.500 L 284.373 206.500 282.788 213.239 M 103.512 223 C 103.877 225.475, 104.923 229.075, 105.838 231 C 107.231 233.934, 108.091 234.549, 111.156 234.805 L 114.811 235.109 111.156 231.017 C 109.145 228.766, 106.453 225.029, 105.174 222.712 L 102.848 218.500 103.512 223 M 291.787 252.784 L 285.075 260.500 288.537 260.810 L 292 261.121 292 267.560 L 292 274 299.500 274 L 307 274 307 267.500 L 307 261 310 261 C 311.650 261, 313 260.713, 313 260.363 C 313 259.448, 299.950 244.993, 299.160 245.034 C 298.797 245.052, 295.479 248.540, 291.787 252.784 M 285 280 L 285 283 299 283 L 313 283 313 280 L 313 277 299 277 L 285 277 285 280" stroke="none" fill="currentColor" fill-rule="evenodd"/></g></svg>
