<svg xmlns="http://www.w3.org/2000/svg" viewBox="0.7908 0.7944 22.4784 22.4112">
<g transform="translate(1.9875 1.9875) scale(0.062539)"><path d="M 146.264 0.718 C 147.784 0.947, 150.034 0.941, 151.264 0.704 C 152.494 0.467, 151.250 0.279, 148.500 0.286 C 145.750 0.294, 144.744 0.488, 146.264 0.718 M 169.264 0.718 C 170.784 0.947, 173.034 0.941, 174.264 0.704 C 175.494 0.467, 174.250 0.279, 171.500 0.286 C 168.750 0.294, 167.744 0.488, 169.264 0.718 M 137.269 1.693 C 138.242 1.947, 139.592 1.930, 140.269 1.656 C 140.946 1.382, 140.150 1.175, 138.500 1.195 C 136.850 1.215, 136.296 1.439, 137.269 1.693 M 180.269 1.693 C 181.242 1.947, 182.592 1.930, 183.269 1.656 C 183.946 1.382, 183.150 1.175, 181.500 1.195 C 179.850 1.215, 179.296 1.439, 180.269 1.693 M 130.750 2.662 C 131.438 2.940, 132.563 2.940, 133.250 2.662 C 133.938 2.385, 133.375 2.158, 132 2.158 C 130.625 2.158, 130.063 2.385, 130.750 2.662 M 186.750 2.662 C 187.438 2.940, 188.563 2.940, 189.250 2.662 C 189.938 2.385, 189.375 2.158, 188 2.158 C 186.625 2.158, 186.063 2.385, 186.750 2.662 M 125.813 3.683 C 126.534 3.972, 127.397 3.936, 127.729 3.604 C 128.061 3.272, 127.471 3.036, 126.417 3.079 C 125.252 3.127, 125.015 3.364, 125.813 3.683 M 192.813 3.683 C 193.534 3.972, 194.397 3.936, 194.729 3.604 C 195.061 3.272, 194.471 3.036, 193.417 3.079 C 192.252 3.127, 192.015 3.364, 192.813 3.683 M 121.813 4.683 C 122.534 4.972, 123.397 4.936, 123.729 4.604 C 124.061 4.272, 123.471 4.036, 122.417 4.079 C 121.252 4.127, 121.015 4.364, 121.813 4.683 M 196.813 4.683 C 197.534 4.972, 198.397 4.936, 198.729 4.604 C 199.061 4.272, 198.471 4.036, 197.417 4.079 C 196.252 4.127, 196.015 4.364, 196.813 4.683 M 117.813 5.683 C 118.534 5.972, 119.397 5.936, 119.729 5.604 C 120.061 5.272, 119.471 5.036, 118.417 5.079 C 117.252 5.127, 117.015 5.364, 117.813 5.683 M 200.813 5.683 C 201.534 5.972, 202.397 5.936, 202.729 5.604 C 203.061 5.272, 202.471 5.036, 201.417 5.079 C 200.252 5.127, 200.015 5.364, 200.813 5.683 M 109 8 C 107.172 9.181, 108.751 9.181, 111.500 8 C 112.819 7.433, 112.989 7.122, 112 7.086 C 111.175 7.055, 109.825 7.467, 109 8 M 210 8.500 C 214.566 10.258, 216.362 10.232, 212.500 8.464 C 210.850 7.708, 208.825 7.104, 208 7.121 C 207.175 7.138, 208.075 7.759, 210 8.500 M 220 12 C 220.825 12.533, 221.950 12.969, 222.500 12.969 C 223.050 12.969, 222.825 12.533, 222 12 C 221.175 11.467, 220.050 11.031, 219.500 11.031 C 218.950 11.031, 219.175 11.467, 220 12 M 96 13 C 95.175 13.533, 94.950 13.969, 95.500 13.969 C 96.050 13.969, 97.175 13.533, 98 13 C 98.825 12.467, 99.050 12.031, 98.500 12.031 C 97.950 12.031, 96.825 12.467, 96 13 M 88.441 16.555 C 86.611 18.022, 86.643 18.042, 89 16.920 C 92.061 15.462, 92.628 15, 91.358 15 C 90.821 15, 89.509 15.700, 88.441 16.555 M 228.083 15.373 C 229.112 16.294, 235 18.999, 235 18.551 C 235 17.975, 229.456 15, 228.383 15 C 227.989 15, 227.854 15.168, 228.083 15.373 M 77.250 22.566 C 74.912 23.967, 73 25.350, 73 25.638 C 73 26.177, 79.747 22.346, 81.450 20.840 C 83.169 19.320, 81.568 19.978, 77.250 22.566 M 238 20.430 C 238 20.705, 238.900 21.411, 240 22 C 241.100 22.589, 242 22.845, 242 22.570 C 242 22.295, 241.100 21.589, 240 21 C 238.900 20.411, 238 20.155, 238 20.430 M 136.357 23.571 C 118.490 26.573, 97.116 35.345, 81.174 46.221 C 70.268 53.660, 52.668 71.561, 45.180 82.830 C 29.365 106.632, 22.008 131.131, 22.008 160 C 22.008 198.254, 35.414 230.588, 62.440 257.522 C 79.214 274.239, 95.200 284.154, 117 291.363 C 131.306 296.094, 143.655 298, 160 298 C 198.213 298, 230.506 284.614, 257.560 257.560 C 284.552 230.568, 298.007 198.130, 297.996 160.074 C 297.985 121.744, 284.638 89.518, 257.560 62.440 C 236.356 41.235, 211.140 28.113, 182.752 23.509 C 171.353 21.660, 147.545 21.692, 136.357 23.571 M 244.500 24.518 C 245.600 25.414, 247.400 26.588, 248.500 27.128 L 250.500 28.110 248.500 26.482 C 247.400 25.586, 245.600 24.412, 244.500 23.872 L 242.500 22.890 244.500 24.518 M 66.750 29.535 C 64.138 31.451, 62 33.239, 62 33.508 C 62 33.777, 64.250 32.380, 67 30.405 C 71.274 27.334, 72.807 25.920, 71.750 26.025 C 71.612 26.038, 69.362 27.618, 66.750 29.535 M 251 28.313 C 251 28.560, 252.652 30.023, 254.671 31.563 C 256.690 33.103, 258.027 33.852, 257.641 33.228 C 256.850 31.948, 251 27.619, 251 28.313 M 51.198 42.530 C 46.214 47.221, 40.242 53.409, 37.927 56.280 C 35.060 59.836, 35.849 59.203, 40.402 54.294 C 44.079 50.330, 50.330 44.147, 54.294 40.555 C 58.257 36.962, 61.221 34.017, 60.879 34.011 C 60.538 34.005, 56.181 37.838, 51.198 42.530 M 266.183 40.794 C 269.885 44.255, 275.921 50.330, 279.598 54.294 C 283.295 58.280, 284.466 59.266, 282.216 56.500 C 278.135 51.481, 266.692 40.157, 261.977 36.472 C 260.589 35.387, 262.482 37.332, 266.183 40.794 M 142.500 43.109 C 126.255 45.449, 102.966 55.007, 90.500 64.447 C 80.940 71.688, 70.569 82.187, 72.152 83.022 C 72.894 83.413, 76.875 84.031, 81 84.394 C 85.125 84.758, 94.110 86.190, 100.966 87.577 L 113.431 90.099 122.966 85.629 C 137.411 78.856, 143.146 77.591, 159.500 77.570 C 175.787 77.549, 183.775 79.351, 197.105 86.053 L 205.138 90.092 214.819 88.089 C 220.144 86.988, 229.870 85.385, 236.434 84.526 C 242.998 83.668, 248.550 82.784, 248.771 82.562 C 248.993 82.340, 246.423 79.450, 243.061 76.139 C 225.290 58.642, 200.742 46.435, 176.566 43.072 C 167.673 41.836, 151.213 41.853, 142.500 43.109 M 31.822 63.750 C 29.446 66.544, 25.819 72, 26.338 72 C 26.599 72, 28.429 69.750, 30.405 67 C 33.962 62.048, 34.692 60.375, 31.822 63.750 M 290.652 68.683 C 295.311 75.470, 298.104 78.981, 296.473 76 C 294.588 72.557, 287.933 63.076, 286.991 62.495 C 286.431 62.148, 288.078 64.933, 290.652 68.683 M 23.771 75.250 C 21.583 78.623, 19.621 82.640, 20.718 81.500 C 22.120 80.043, 26.245 73, 25.697 73 C 25.440 73, 24.573 74.013, 23.771 75.250 M 298 80 C 298.589 81.100, 299.295 82, 299.570 82 C 299.845 82, 299.589 81.100, 299 80 C 298.411 78.900, 297.705 78, 297.430 78 C 297.155 78, 297.411 78.900, 298 80 M 15.954 89.086 C 15.340 90.233, 15.026 91.360, 15.257 91.590 C 15.487 91.820, 16.189 90.882, 16.816 89.504 C 18.194 86.480, 17.523 86.154, 15.954 89.086 M 303.080 89 C 304.538 92.061, 305 92.628, 305 91.358 C 305 90.821, 304.300 89.509, 303.445 88.441 C 301.978 86.611, 301.958 86.643, 303.080 89 M 57.172 91.102 C 56.682 92.421, 56.061 95.525, 55.793 98 L 55.306 102.500 63.613 102.671 C 91.255 103.241, 126.189 111.604, 144.241 121.973 L 152.500 126.717 152.832 123.613 C 153.014 121.905, 153.640 119.933, 154.223 119.231 C 155.023 118.268, 154.900 118.101, 153.724 118.552 C 152.638 118.969, 151.680 118.127, 150.563 115.775 C 145.239 104.556, 105.004 91.554, 68.803 89.355 C 58.120 88.707, 58.059 88.716, 57.172 91.102 M 235.500 90.563 C 203.476 94.906, 174.654 105.692, 168.869 115.497 C 167.435 117.928, 166.393 118.709, 165.185 118.256 C 163.820 117.745, 163.722 117.899, 164.668 119.067 C 165.311 119.859, 165.986 121.936, 166.168 123.680 L 166.500 126.852 173 122.932 C 185.363 115.476, 204.508 109.094, 225 105.599 C 236.965 103.558, 257.652 101.680, 260.936 102.337 L 263.696 102.889 263.220 97.695 C 262.450 89.293, 262.091 88.984, 253.215 89.103 C 248.972 89.160, 241 89.816, 235.500 90.563 M 12.624 96.539 C 11.659 99.053, 11.943 99.702, 13.122 97.675 C 13.706 96.671, 13.973 95.639, 13.715 95.382 C 13.458 95.124, 12.966 95.645, 12.624 96.539 M 306.031 95.500 C 306.031 96.050, 306.467 97.175, 307 98 C 307.533 98.825, 307.969 99.050, 307.969 98.500 C 307.969 97.950, 307.533 96.825, 307 96 C 306.467 95.175, 306.031 94.950, 306.031 95.500 M 8.116 108.098 C 7.502 109.858, 7.032 111.794, 7.070 112.399 C 7.109 113.005, 7.786 111.739, 8.574 109.587 C 9.363 107.435, 9.833 105.500, 9.620 105.286 C 9.406 105.073, 8.729 106.338, 8.116 108.098 M 311.086 108.500 C 311.190 110.394, 312.856 113.584, 312.914 112 C 312.945 111.175, 312.533 109.825, 312 109 C 311.467 108.175, 311.055 107.950, 311.086 108.500 M 269.080 127.500 C 269.034 134.100, 268.764 154.800, 268.479 173.500 L 267.962 207.500 270.556 201.013 C 276.113 187.117, 277.443 179.033, 277.384 159.500 C 277.335 143.456, 277.052 140.468, 274.778 132 C 273.375 126.775, 271.537 120.925, 270.695 119 C 269.206 115.597, 269.161 115.834, 269.080 127.500 M 5.079 118.583 C 5.127 119.748, 5.364 119.985, 5.683 119.188 C 5.972 118.466, 5.936 117.603, 5.604 117.271 C 5.272 116.939, 5.036 117.529, 5.079 118.583 M 314.079 118.583 C 314.127 119.748, 314.364 119.985, 314.683 119.188 C 314.972 118.466, 314.936 117.603, 314.604 117.271 C 314.272 116.939, 314.036 117.529, 314.079 118.583 M 47.269 125 C 42.968 139.455, 42.498 143.078, 42.594 161 C 42.676 176.406, 42.992 179.637, 45.230 188 C 50.550 207.871, 50.843 207.449, 50.788 180 C 50.761 166.525, 50.460 146.950, 50.120 136.500 L 49.500 117.500 47.269 125 M 4.079 122.583 C 4.127 123.748, 4.364 123.985, 4.683 123.188 C 4.972 122.466, 4.936 121.603, 4.604 121.271 C 4.272 120.939, 4.036 121.529, 4.079 122.583 M 315.079 122.583 C 315.127 123.748, 315.364 123.985, 315.683 123.188 C 315.972 122.466, 315.936 121.603, 315.604 121.271 C 315.272 120.939, 315.036 121.529, 315.079 122.583 M 3.079 126.583 C 3.127 127.748, 3.364 127.985, 3.683 127.188 C 3.972 126.466, 3.936 125.603, 3.604 125.271 C 3.272 124.939, 3.036 125.529, 3.079 126.583 M 316.079 126.583 C 316.127 127.748, 316.364 127.985, 316.683 127.188 C 316.972 126.466, 316.936 125.603, 316.604 125.271 C 316.272 124.939, 316.036 125.529, 316.079 126.583 M 2.158 132 C 2.158 133.375, 2.385 133.938, 2.662 133.250 C 2.940 132.563, 2.940 131.438, 2.662 130.750 C 2.385 130.063, 2.158 130.625, 2.158 132 M 317.158 132 C 317.158 133.375, 317.385 133.938, 317.662 133.250 C 317.940 132.563, 317.940 131.438, 317.662 130.750 C 317.385 130.063, 317.158 130.625, 317.158 132 M 1.195 138.500 C 1.215 140.150, 1.439 140.704, 1.693 139.731 C 1.947 138.758, 1.930 137.408, 1.656 136.731 C 1.382 136.054, 1.175 136.850, 1.195 138.500 M 318.195 138.500 C 318.215 140.150, 318.439 140.704, 318.693 139.731 C 318.947 138.758, 318.930 137.408, 318.656 136.731 C 318.382 136.054, 318.175 136.850, 318.195 138.500 M 0.286 148.500 C 0.294 151.250, 0.488 152.256, 0.718 150.736 C 0.947 149.216, 0.941 146.966, 0.704 145.736 C 0.467 144.506, 0.279 145.750, 0.286 148.500 M 319.300 149 C 319.300 152.025, 319.487 153.262, 319.716 151.750 C 319.945 150.238, 319.945 147.762, 319.716 146.250 C 319.487 144.738, 319.300 145.975, 319.300 149 M 319 171.059 C 319 174.177, 319.384 175.881, 320 175.500 C 320.550 175.160, 321 172.884, 321 170.441 C 321 167.998, 320.550 166, 320 166 C 319.450 166, 319 168.277, 319 171.059 M 1.195 181.500 C 1.215 183.150, 1.439 183.704, 1.693 182.731 C 1.947 181.758, 1.930 180.408, 1.656 179.731 C 1.382 179.054, 1.175 179.850, 1.195 181.500 M 318.195 181.500 C 318.215 183.150, 318.439 183.704, 318.693 182.731 C 318.947 181.758, 318.930 180.408, 318.656 179.731 C 318.382 179.054, 318.175 179.850, 318.195 181.500 M 2.158 188 C 2.158 189.375, 2.385 189.938, 2.662 189.250 C 2.940 188.563, 2.940 187.438, 2.662 186.750 C 2.385 186.063, 2.158 186.625, 2.158 188 M 317.158 188 C 317.158 189.375, 317.385 189.938, 317.662 189.250 C 317.940 188.563, 317.940 187.438, 317.662 186.750 C 317.385 186.063, 317.158 186.625, 317.158 188 M 3.079 193.583 C 3.127 194.748, 3.364 194.985, 3.683 194.188 C 3.972 193.466, 3.936 192.603, 3.604 192.271 C 3.272 191.939, 3.036 192.529, 3.079 193.583 M 316.079 193.583 C 316.127 194.748, 316.364 194.985, 316.683 194.188 C 316.972 193.466, 316.936 192.603, 316.604 192.271 C 316.272 191.939, 316.036 192.529, 316.079 193.583 M 4.079 197.583 C 4.127 198.748, 4.364 198.985, 4.683 198.188 C 4.972 197.466, 4.936 196.603, 4.604 196.271 C 4.272 195.939, 4.036 196.529, 4.079 197.583 M 315.079 197.583 C 315.127 198.748, 315.364 198.985, 315.683 198.188 C 315.972 197.466, 315.936 196.603, 315.604 196.271 C 315.272 195.939, 315.036 196.529, 315.079 197.583 M 5.079 201.583 C 5.127 202.748, 5.364 202.985, 5.683 202.188 C 5.972 201.466, 5.936 200.603, 5.604 200.271 C 5.272 199.939, 5.036 200.529, 5.079 201.583 M 314.079 201.583 C 314.127 202.748, 314.364 202.985, 314.683 202.188 C 314.972 201.466, 314.936 200.603, 314.604 200.271 C 314.272 199.939, 314.036 200.529, 314.079 201.583 M 7.086 208 C 7.055 208.825, 7.467 210.175, 8 211 C 9.181 212.828, 9.181 211.249, 8 208.500 C 7.433 207.181, 7.122 207.011, 7.086 208 M 12.031 221.500 C 12.031 222.050, 12.467 223.175, 13 224 C 13.533 224.825, 13.969 225.050, 13.969 224.500 C 13.969 223.950, 13.533 222.825, 13 222 C 12.467 221.175, 12.031 220.950, 12.031 221.500 M 306.624 222.539 C 305.659 225.053, 305.943 225.702, 307.122 223.675 C 307.706 222.671, 307.973 221.639, 307.715 221.382 C 307.458 221.124, 306.966 221.645, 306.624 222.539 M 15 228.642 C 15 229.179, 15.700 230.491, 16.555 231.559 C 18.022 233.389, 18.042 233.357, 16.920 231 C 15.462 227.939, 15 227.372, 15 228.642 M 303.564 229.707 C 303.022 231.132, 303.136 231.247, 304.124 230.267 C 304.808 229.588, 305.115 228.781, 304.807 228.474 C 304.499 228.166, 303.940 228.721, 303.564 229.707 M 21 240 C 21.589 241.100, 22.295 242, 22.570 242 C 22.845 242, 22.589 241.100, 22 240 C 21.411 238.900, 20.705 238, 20.430 238 C 20.155 238, 20.411 238.900, 21 240 M 298 240 C 297.411 241.100, 297.155 242, 297.430 242 C 297.705 242, 298.411 241.100, 299 240 C 299.589 238.900, 299.845 238, 299.570 238 C 299.295 238, 298.589 238.900, 298 240 M 75 241.668 C 75 243.327, 90.081 255.496, 98.523 260.648 C 126.778 277.892, 160.909 282.520, 192.781 273.431 C 203.297 270.432, 221.411 261.619, 229.095 255.764 C 237.455 249.393, 245.469 242.136, 244.839 241.506 C 244.177 240.844, 223.237 247.078, 214 250.687 C 201.798 255.454, 185.448 263.788, 176.314 269.898 C 167.243 275.965, 163.855 277.139, 162.309 274.750 C 161.864 274.063, 161.447 269.900, 161.381 265.500 C 161.316 261.100, 160.922 255.751, 160.506 253.614 C 159.910 250.552, 160.024 249.897, 161.045 250.528 C 161.985 251.109, 162.157 250.850, 161.670 249.582 C 161.301 248.622, 161 246.973, 161 245.918 C 161 242.798, 158.268 243.718, 157.787 247 C 157.545 248.650, 157.718 250, 158.173 250 C 159.353 250, 159.200 255.758, 158 256.500 C 156.643 257.339, 156.726 267.326, 158.102 268.702 C 159.669 270.269, 157.044 275.419, 154.491 275.786 C 153.360 275.948, 148.310 273.308, 142.803 269.677 C 126.855 259.159, 105.435 249.554, 85.548 244.002 C 81.174 242.781, 77.011 241.558, 76.298 241.284 C 75.584 241.010, 75 241.183, 75 241.668 M 24 245 C 24.589 246.100, 25.295 247, 25.570 247 C 25.845 247, 25.589 246.100, 25 245 C 24.411 243.900, 23.705 243, 23.430 243 C 23.155 243, 23.411 243.900, 24 245 M 291.240 250.527 C 288.415 254.667, 286.533 257.789, 287.057 257.465 C 288.435 256.613, 297.555 243, 296.748 243 C 296.544 243, 294.066 246.387, 291.240 250.527 M 28.965 252.449 C 30.648 254.896, 32.503 257.193, 33.086 257.553 C 33.669 257.914, 32.496 255.912, 30.479 253.104 C 25.976 246.835, 24.733 246.297, 28.965 252.449 M 36.472 261.977 C 40.157 266.692, 51.481 278.135, 56.500 282.216 C 59.266 284.466, 58.280 283.295, 54.294 279.598 C 50.330 275.921, 44.255 269.885, 40.794 266.183 C 37.332 262.482, 35.387 260.589, 36.472 261.977 M 272.062 272.856 C 264.671 280.360, 260.846 284.621, 263.562 282.325 C 269.684 277.150, 287.423 258.731, 285.924 259.106 C 285.691 259.165, 279.453 265.352, 272.062 272.856 M 62 286.378 C 62 286.585, 62.788 287.373, 63.750 288.128 C 65.336 289.371, 65.371 289.336, 64.128 287.750 C 62.821 286.084, 62 285.555, 62 286.378 M 252.326 289.913 C 243.585 296.235, 242.446 297.119, 244 296.372 C 246.732 295.060, 256.865 288.027, 257.497 287.005 C 258.377 285.581, 258.101 285.736, 252.326 289.913 M 68.235 291.226 C 71.204 293.750, 77 297.368, 77 296.698 C 77 296.470, 74.412 294.622, 71.250 292.592 C 68.088 290.562, 66.731 289.947, 68.235 291.226 M 78 297.430 C 78 297.705, 78.900 298.411, 80 299 C 81.100 299.589, 82 299.845, 82 299.570 C 82 299.295, 81.100 298.589, 80 298 C 78.900 297.411, 78 297.155, 78 297.430 M 239.441 298.555 C 237.577 300.049, 237.589 300.067, 239.750 299.020 C 240.988 298.420, 242 297.720, 242 297.465 C 242 296.700, 241.481 296.921, 239.441 298.555 M 233 302 C 232.099 302.582, 231.975 302.975, 232.691 302.985 C 233.346 302.993, 234.160 302.550, 234.500 302 C 235.267 300.758, 234.921 300.758, 233 302 M 88.441 303.445 C 89.509 304.300, 90.821 305, 91.358 305 C 92.628 305, 92.061 304.538, 89 303.080 C 86.643 301.958, 86.611 301.978, 88.441 303.445 M 229 304 C 228.099 304.582, 227.975 304.975, 228.691 304.985 C 229.346 304.993, 230.160 304.550, 230.500 304 C 231.267 302.758, 230.921 302.758, 229 304 M 96 307 C 96.825 307.533, 97.950 307.969, 98.500 307.969 C 99.050 307.969, 98.825 307.533, 98 307 C 97.175 306.467, 96.050 306.031, 95.500 306.031 C 94.950 306.031, 95.175 306.467, 96 307 M 221 307.500 C 219.625 308.286, 218.950 308.929, 219.500 308.929 C 220.050 308.929, 221.625 308.286, 223 307.500 C 224.375 306.714, 225.050 306.071, 224.500 306.071 C 223.950 306.071, 222.375 306.714, 221 307.500 M 109 312 C 109.825 312.533, 111.175 312.945, 112 312.914 C 112.989 312.878, 112.819 312.567, 111.500 312 C 108.751 310.819, 107.172 310.819, 109 312 M 117.813 314.683 C 118.534 314.972, 119.397 314.936, 119.729 314.604 C 120.061 314.272, 119.471 314.036, 118.417 314.079 C 117.252 314.127, 117.015 314.364, 117.813 314.683 M 200.813 314.683 C 201.534 314.972, 202.397 314.936, 202.729 314.604 C 203.061 314.272, 202.471 314.036, 201.417 314.079 C 200.252 314.127, 200.015 314.364, 200.813 314.683 M 121.813 315.683 C 122.534 315.972, 123.397 315.936, 123.729 315.604 C 124.061 315.272, 123.471 315.036, 122.417 315.079 C 121.252 315.127, 121.015 315.364, 121.813 315.683 M 196.813 315.683 C 197.534 315.972, 198.397 315.936, 198.729 315.604 C 199.061 315.272, 198.471 315.036, 197.417 315.079 C 196.252 315.127, 196.015 315.364, 196.813 315.683 M 125.813 316.683 C 126.534 316.972, 127.397 316.936, 127.729 316.604 C 128.061 316.272, 127.471 316.036, 126.417 316.079 C 125.252 316.127, 125.015 316.364, 125.813 316.683 M 192.813 316.683 C 193.534 316.972, 194.397 316.936, 194.729 316.604 C 195.061 316.272, 194.471 316.036, 193.417 316.079 C 192.252 316.127, 192.015 316.364, 192.813 316.683 M 130.750 317.662 C 131.438 317.940, 132.563 317.940, 133.250 317.662 C 133.938 317.385, 133.375 317.158, 132 317.158 C 130.625 317.158, 130.063 317.385, 130.750 317.662 M 186.750 317.662 C 187.438 317.940, 188.563 317.940, 189.250 317.662 C 189.938 317.385, 189.375 317.158, 188 317.158 C 186.625 317.158, 186.063 317.385, 186.750 317.662 M 137.269 318.693 C 138.242 318.947, 139.592 318.930, 140.269 318.656 C 140.946 318.382, 140.150 318.175, 138.500 318.195 C 136.850 318.215, 136.296 318.439, 137.269 318.693 M 180.269 318.693 C 181.242 318.947, 182.592 318.930, 183.269 318.656 C 183.946 318.382, 183.150 318.175, 181.500 318.195 C 179.850 318.215, 179.296 318.439, 180.269 318.693 M 146.250 319.716 C 147.762 319.945, 150.238 319.945, 151.750 319.716 C 153.262 319.487, 152.025 319.300, 149 319.300 C 145.975 319.300, 144.738 319.487, 146.250 319.716 M 168.250 319.716 C 169.762 319.945, 172.238 319.945, 173.750 319.716 C 175.262 319.487, 174.025 319.300, 171 319.300 C 167.975 319.300, 166.738 319.487, 168.250 319.716" stroke="none" fill="currentColor" fill-rule="evenodd"/></g></svg>
