<svg xmlns="http://www.w3.org/2000/svg" viewBox="0.7888 9.8174 22.4224 4.3747">
<g transform="translate(2.0000 10.0530) scale(0.004237)"><path d="M 3193 0.639 C 3126.778 2.708, 3065.861 14.907, 3008 37.687 C 2944.690 62.611, 2887.867 100.212, 2842.358 147.292 C 2758.639 233.903, 2712.514 337.795, 2702.413 462.500 C 2700.407 487.277, 2700.958 540.377, 2703.426 560 C 2717.138 669.034, 2767.502 763.020, 2845.858 825.798 C 2925.490 889.600, 3031.125 921.486, 3153.500 918.662 C 3181.655 918.013, 3195.122 917.042, 3218.787 913.955 C 3336.161 898.648, 3438.928 846.330, 3516.346 762.473 C 3559.705 715.507, 3590.797 666.419, 3614.189 608 C 3656.416 502.544, 3662.622 370.560, 3630.033 271.077 C 3621.834 246.049, 3606.623 213.098, 3593.654 192.274 C 3559.063 136.728, 3508.326 88.972, 3449 56.117 C 3393.595 25.433, 3325.966 6.649, 3254.500 2.096 C 3235.854 0.907, 3206.592 0.214, 3193 0.639 M 137.616 22.661 C 136.915 26.078, -0 894.256, -0 895.282 C 0 896.396, 231.780 896.165, 232.469 895.050 C 232.792 894.528, 244.762 819.734, 259.070 728.841 C 273.378 637.949, 285.241 563.426, 285.432 563.235 C 285.623 563.044, 297.341 585.750, 311.473 613.694 C 325.605 641.637, 363.543 716.588, 395.780 780.250 L 454.394 896 587.697 896 C 661.014 896, 721 895.794, 721 895.543 C 721 895.292, 673.280 817.612, 614.955 722.922 C 556.630 628.231, 509.042 550.626, 509.205 550.465 C 509.367 550.304, 516.323 548.775, 524.661 547.068 C 564.457 538.920, 601.417 524.493, 632 505.172 C 662.077 486.170, 695.025 452.657, 713.281 422.500 C 732.930 390.041, 745.059 353.583, 749.378 314 C 755.620 256.794, 748.326 204.457, 727.958 160.300 C 711.868 125.419, 683.275 93.016, 648.804 70.599 C 608.908 44.655, 561.519 30.033, 499.488 24.527 C 461.381 21.144, 443.040 20.772, 291.349 20.300 L 138.198 19.823 137.616 22.661 M 863.466 21.250 C 862.855 22.874, 832 218.693, 832 220.951 C 832 222.570, 854.509 222.706, 1225.647 223.314 C 1442.152 223.669, 1619.417 224.084, 1619.568 224.235 C 1619.720 224.386, 1596.034 374.808, 1566.933 558.505 C 1537.833 742.202, 1514.018 893.288, 1514.012 894.250 C 1514.001 895.907, 1520.252 896, 1631.389 896 L 1748.777 896 1749.368 892.750 C 1750.485 886.607, 1855 225.848, 1855 224.929 C 1855 224.379, 1892.588 223.908, 1948.729 223.755 L 2042.459 223.500 2058.669 125 C 2067.584 70.825, 2075.151 25.038, 2075.485 23.250 L 2076.091 20 1470.014 20 C 986.070 20, 863.842 20.252, 863.466 21.250 M 2053.060 313.750 C 2027.572 475.313, 1996.505 672.075, 1984.022 751 C 1971.539 829.925, 1961.504 894.837, 1961.722 895.250 C 1961.940 895.663, 2014.261 896, 2077.992 896 C 2187.493 896, 2193.892 895.904, 2194.358 894.250 C 2194.629 893.288, 2206.455 818.587, 2220.638 728.250 C 2234.821 637.913, 2246.725 564, 2247.092 564 C 2247.460 564, 2285.501 638.587, 2331.630 729.750 L 2415.500 895.500 2548.858 895.754 C 2672.267 895.988, 2682.170 895.885, 2681.586 894.363 C 2681.097 893.090, 2477.201 561.478, 2471.322 552.394 C 2469.988 550.333, 2470.199 550.241, 2481.230 548.070 C 2535.598 537.370, 2580.750 517.338, 2617.769 487.495 C 2635.996 472.801, 2657.524 448.954, 2670.575 429 C 2700.262 383.612, 2714.534 328.735, 2712.705 267 C 2710.592 195.666, 2688.723 141.100, 2645.353 98.952 C 2608.203 62.849, 2560.303 39.896, 2500.500 29.541 C 2454.447 21.567, 2410.849 20.029, 2230.451 20.012 L 2099.401 20 2053.060 313.750 M 3740.942 20.750 C 3740.910 21.163, 3709.709 217.925, 3671.606 458 C 3633.503 698.075, 3602.505 894.837, 3602.723 895.250 C 3602.940 895.662, 3656.633 896, 3722.040 896 L 3840.962 896 3841.472 893.750 C 3841.753 892.513, 3872.817 696.650, 3910.505 458.500 C 3948.193 220.350, 3979.283 24.262, 3979.594 22.750 L 3980.159 20 3860.579 20 C 3794.811 20, 3740.974 20.337, 3740.942 20.750 M 4011.541 22.250 C 4011.268 23.488, 3980.645 219.125, 3943.489 457 C 3906.334 694.875, 3875.673 890.962, 3875.355 892.750 L 3874.777 896 3985.639 895.985 C 4177.295 895.959, 4256.844 893.274, 4327.780 884.437 C 4392.608 876.361, 4446.165 860.660, 4494.625 835.524 C 4560.110 801.559, 4621.520 743.277, 4658.906 679.614 C 4672.587 656.318, 4688.217 621.084, 4696.443 595 C 4718.849 523.953, 4725.638 435.108, 4714.933 353.042 C 4702.142 254.991, 4660.926 170.832, 4598.241 114.770 C 4557.164 78.033, 4512.870 53.617, 4464.500 41.047 C 4400.672 24.460, 4325.875 20.044, 4108.269 20.013 L 4012.038 20 4011.541 22.250 M 343.550 193.092 C 341.798 203.034, 308 417.606, 308 418.783 C 308 419.959, 315.704 420.108, 357.750 419.743 C 402.767 419.353, 408.642 419.111, 419.500 417.197 C 450.822 411.676, 472.549 401.814, 490.199 385.104 C 512.717 363.786, 523.987 334.566, 523.997 297.474 C 524.012 245.708, 502.014 213.980, 456.500 200.125 C 434.460 193.415, 416.240 191.245, 374.325 190.337 L 344.150 189.684 343.550 193.092 M 2305.543 191.090 C 2305.258 191.865, 2297.136 242.450, 2287.493 303.500 C 2277.850 364.550, 2269.700 415.777, 2269.381 417.338 L 2268.802 420.176 2318.651 419.738 C 2371.253 419.276, 2377.024 418.845, 2396.189 413.952 C 2435.035 404.033, 2461.817 383.022, 2475.032 352.095 C 2482.976 333.505, 2485.493 317.784, 2484.732 291.503 C 2484.299 276.529, 2483.776 271.817, 2481.625 263.500 C 2470.618 220.943, 2439.949 199.646, 2379.361 192.488 C 2372.288 191.652, 2352.901 190.678, 2336.280 190.324 C 2310.763 189.780, 2305.980 189.899, 2305.543 191.090 M 4178.632 454.140 C 4158.372 586.338, 4141.574 695.673, 4141.302 697.106 C 4140.975 698.832, 4141.306 699.903, 4142.283 700.278 C 4143.095 700.590, 4156.094 701.399, 4171.171 702.075 C 4224.582 704.473, 4272.307 699.717, 4312.354 688.007 C 4403.241 661.430, 4460.238 597.233, 4477.944 501.500 C 4485.045 463.108, 4486.473 412.105, 4481.459 375.960 C 4471.054 300.945, 4439.119 255.786, 4380.046 232.552 C 4368.274 227.922, 4348.942 222.571, 4334.500 219.945 C 4310.238 215.535, 4300.624 214.830, 4257.484 214.298 L 4215.468 213.780 4178.632 454.140 M 3169 216.020 C 3125.759 220.493, 3087.966 234.352, 3055.090 257.791 C 2992.377 302.502, 2953.874 369.988, 2945.428 450 C 2943.245 470.680, 2943.940 508.591, 2946.850 527.568 C 2953.101 568.324, 2966.481 600.827, 2988.873 629.651 C 3021.577 671.747, 3069.269 697.141, 3126.785 703.082 C 3143.777 704.837, 3182.458 703.781, 3197 701.165 C 3248.358 691.927, 3290.052 669.402, 3328.030 630.376 C 3371.513 585.694, 3395.711 535.368, 3404.663 471 C 3407.113 453.386, 3407.141 410.167, 3404.713 393.942 C 3397.612 346.487, 3379.683 309.185, 3348.567 277.129 C 3316.165 243.748, 3279.144 224.805, 3232 217.483 C 3219.710 215.575, 3181.813 214.694, 3169 216.020 M 774.409 583.750 C 747.418 754.663, 725.511 894.837, 725.726 895.250 C 726.068 895.904, 1229.921 896.404, 1230.049 895.750 C 1231.647 887.612, 1260.523 701.256, 1260.265 700.750 C 1260.054 700.337, 1199.123 700, 1124.862 700 L 989.841 700 990.412 697.250 C 991.016 694.344, 1013 557.361, 1013 556.506 C 1013 556.232, 1069.805 555.893, 1139.233 555.754 L 1265.467 555.500 1279.551 464 C 1287.297 413.675, 1293.914 370.813, 1294.254 368.750 L 1294.874 365 1169.437 365 C 1098.573 365, 1044 364.620, 1044 364.126 C 1044 363.281, 1056.385 282.815, 1057.526 276.250 L 1058.091 273 940.787 273 L 823.483 273 774.409 583.750" stroke="none" fill="currentColor" fill-rule="evenodd"/></g></svg>
