<svg xmlns="http://www.w3.org/2000/svg" viewBox="0.7944 9.0768 22.4112 5.8464">
<g transform="translate(1.9499 9.1128) scale(0.040100)"><path d="M 46.544 10.720 C 42.267 17.015, 39.672 26.378, 40.265 33.384 C 41.238 44.899, 44.623 51.033, 60.190 69.496 C 73.911 85.768, 78.597 102.554, 73.473 117.076 C 72.180 120.740, 72.180 121.095, 73.473 120.023 C 74.281 119.352, 76.305 116.075, 77.971 112.742 C 80.552 107.578, 81 105.547, 81 99.022 C 81 83.778, 74.338 69.770, 58.389 51.484 C 46.941 38.357, 43.638 26.421, 47.810 13.250 C 48.899 9.813, 49.629 7, 49.431 7 C 49.234 7, 47.935 8.674, 46.544 10.720 M 37.110 41.562 C 36.949 50.467, 40.342 61.991, 46.971 75.045 C 55.405 91.656, 55.951 97.569, 49.709 104.678 C 40.117 115.603, 23.647 113.968, 15.205 101.253 C 11.939 96.335, 11.553 95.062, 11.528 89.129 C 11.513 85.483, 11.834 80.925, 12.242 79 L 12.985 75.500 11.013 78 C 6.350 83.913, 4.591 89.256, 4.195 98.703 C 3.854 106.856, 4.093 108.523, 6.290 113.323 C 11.105 123.839, 19.363 130.341, 32.023 133.585 C 45.964 137.156, 60.958 130.444, 68.772 117.134 C 71.122 113.131, 71.492 111.410, 71.487 104.500 C 71.482 97.395, 71.081 95.659, 67.900 88.981 C 65.840 84.656, 60.747 77.077, 55.909 71.136 C 51.284 65.456, 46.478 59.390, 45.229 57.655 C 42.643 54.062, 39.208 45.409, 38.022 39.500 C 37.252 35.662, 37.215 35.745, 37.110 41.562 M 101.230 93.750 L 101.500 115.500 104.250 115.816 L 107 116.133 107 108.066 L 107 100 116.010 100 C 123.379 100, 125.280 100.319, 126.449 101.750 C 137.497 115.271, 138.278 116, 141.716 116 C 145.708 116, 145.643 115.817, 138.829 107.864 C 133.455 101.592, 132.936 100.006, 136.250 99.986 C 140.571 99.960, 143.091 98.725, 144.540 95.923 C 146.151 92.807, 146.580 80, 145.073 80 C 142.843 80, 140 85.399, 140 89.635 L 140 94 123.500 94 L 107 94 107 86 L 107 78 119.066 78 C 131.515 78, 134.200 77.362, 136.012 73.977 C 137.048 72.042, 136.691 72, 119.016 72 L 100.961 72 101.230 93.750 M 157.787 93.999 L 158.074 116 160.537 116 L 163 116 163 94 L 163 72 160.250 71.999 L 157.500 71.998 157.787 93.999 M 176.924 74.581 C 174.797 76.846, 174.505 78.075, 174.541 84.595 C 174.576 90.921, 174.915 92.360, 176.817 94.263 C 178.925 96.373, 180.016 96.519, 196.026 96.834 L 213 97.169 213 103.584 L 213 110 196.969 110 C 183.641 110, 180.840 109.747, 180.362 108.500 C 180.045 107.675, 178.709 107, 177.393 107 C 175.573 107, 175.004 107.539, 175.015 109.250 C 175.055 115.097, 178.062 116, 197.480 116 C 213.783 116, 214.136 115.954, 216.545 113.545 C 218.711 111.380, 219 110.217, 219 103.656 C 219 97.830, 218.587 95.711, 217.091 93.861 C 215.249 91.583, 214.568 91.482, 197.841 91 L 180.500 90.500 180.500 84.500 L 180.500 78.500 196.627 78.226 C 212.094 77.963, 212.776 78.034, 213.283 79.976 C 213.643 81.352, 214.643 82, 216.406 82 C 218.519 82, 219 81.528, 219 79.455 C 219 78.055, 217.895 75.805, 216.545 74.455 C 214.128 72.037, 213.830 72, 196.720 72 L 179.349 72 176.924 74.581 M 231 94 L 231 116 251.500 116 L 272 116 272 113.500 L 272 111 254.456 111 L 236.912 111 237.206 103.750 L 237.500 96.500 251.251 96.500 C 264.845 96.500, 265.002 96.474, 265.001 94.250 C 265 92.024, 264.852 92, 251 92 L 237 92 237 84.500 L 237 77 254.500 77 L 272 77 272 74.500 L 272 72 251.500 72 L 231 72 231 94 M 282 94 L 282 116 284.349 116 C 286.610 116, 286.723 115.633, 287.344 106.250 C 287.699 100.888, 287.992 93.013, 287.995 88.750 C 287.998 84.487, 288.379 81, 288.842 81 C 289.305 81, 293.645 85.679, 298.485 91.399 L 307.286 101.797 316.227 91.399 C 321.144 85.679, 325.579 81, 326.083 81 C 326.604 81, 327 88.588, 327 98.566 L 327 116.133 329.750 115.816 L 332.500 115.500 332.770 93.750 L 333.039 72 329.232 72 C 325.621 72, 324.967 72.546, 316.516 82.622 L 307.606 93.244 305.185 90.372 C 290.123 72.510, 289.647 72.061, 285.750 72.030 L 282 72 282 94 M 347.455 74.455 C 345.059 76.850, 345 77.285, 345 92.423 C 345 105.515, 345.225 107.851, 346.440 107.385 C 350.040 106.003, 351 102.350, 351 90.035 L 351 78 367.525 78 L 384.051 78 383.775 93.750 L 383.500 109.500 370.850 110 C 360.261 110.419, 357.858 110.810, 356.100 112.405 C 354.945 113.453, 354 114.690, 354 115.155 C 354 115.620, 360.555 116, 368.566 116 C 382.620 116, 386.401 115.346, 388.235 112.600 C 388.639 111.995, 388.976 103.545, 388.985 93.823 L 389 76.145 386.365 74.073 C 383.935 72.161, 382.413 72, 366.820 72 C 350.199 72, 349.867 72.042, 347.455 74.455 M 402 94 L 402 116 421.365 116 C 439.442 116, 440.906 115.862, 443.365 113.927 L 446 111.855 445.971 95.677 L 445.941 79.500 442.859 82.890 L 439.777 86.281 440.139 97.890 L 440.500 109.500 424 109.500 L 407.500 109.500 407.500 94 L 407.500 78.500 420.240 77.987 C 432.474 77.494, 433.090 77.365, 435.718 74.737 L 438.455 72 420.227 72 L 402 72 402 94 M 458.230 93.750 L 458.500 115.500 479.250 115.770 L 500 116.041 500 113.543 L 500 111.046 482.250 110.773 L 464.500 110.500 464.500 103.500 L 464.500 96.500 478.250 96.222 C 491.105 95.962, 492 95.817, 492 94 C 492 92.183, 491.105 92.038, 478.250 91.778 L 464.500 91.500 464.500 84.500 L 464.500 77.500 482.250 77.227 L 500 76.954 500 74.477 L 500 72 478.980 72 L 457.961 72 458.230 93.750 M 1.540 113.500 C 2.577 119.130, 7.061 126.880, 11.162 130.128 C 15.273 133.384, 24.576 137.055, 28.405 136.933 C 29.589 136.895, 28.668 136.294, 26.286 135.549 C 16.275 132.421, 5.724 123.157, 2.569 114.725 C 1.447 111.727, 1.148 111.371, 1.540 113.500" stroke="none" fill="currentColor" fill-rule="evenodd"/></g></svg>
