<svg xmlns="http://www.w3.org/2000/svg" viewBox="0.7953 8.2872 22.3944 7.4256">
<g transform="translate(1.9875 8.6854) scale(0.050031)"><path d="M 265.500 1.117 C 223.277 3.606, 170.271 12.412, 127.366 24.065 C 111.412 28.399, 84.283 37.293, 74.500 41.398 C 69.340 43.563, 68.920 43.922, 71.500 43.963 C 76.525 44.043, 81.857 45.958, 83.471 48.261 C 84.312 49.462, 85 52.145, 85 54.223 L 85 58 80.125 58 C 75.556 58, 75.214 57.820, 74.675 55.126 C 73.832 50.908, 69.036 49.857, 67.609 53.577 C 66.630 56.128, 68.108 57.916, 73.851 61.132 C 76.958 62.871, 80.962 65.666, 82.750 67.343 C 85.630 70.045, 86 71, 86 75.731 C 86 84.806, 81.588 88.530, 71 88.390 C 61.680 88.268, 56 83.595, 56 76.050 L 56 73 62 73 L 68 73 68 76.481 C 68 79.414, 68.418 80.067, 70.656 80.628 C 72.612 81.119, 73.665 80.811, 74.656 79.456 C 75.395 78.445, 76 77.225, 76 76.745 C 76 75.305, 70.886 71.020, 64.315 66.954 C 56.954 62.400, 55.155 58.480, 57.416 51.919 L 58.738 48.083 55.119 49.591 C 49.663 51.864, 35.327 59.721, 28 64.453 C 12.675 74.352, 1.991 86.177, 0.523 94.864 C -5.880 132.763, 105.333 144.392, 230 118.859 C 262.062 112.293, 302.615 100.673, 324.873 91.675 L 333.246 88.290 328.337 87.639 C 318.308 86.309, 316 82.260, 316 66 C 316 49.874, 318.310 45.742, 328.075 44.403 C 337.538 43.106, 344.704 47.371, 345.714 54.902 L 346.263 59 340.698 59 C 335.425 59, 335.116 58.861, 334.816 56.351 C 334.409 52.940, 331.661 51.094, 329.250 52.612 C 327.770 53.544, 327.457 55.564, 327.220 65.710 C 326.912 78.923, 327.629 80.812, 332.487 79.593 C 334.703 79.036, 335 78.433, 335 74.481 C 335 70.667, 334.702 70, 333 70 C 331.376 70, 331 69.333, 331 66.456 L 331 62.912 338.250 63.206 L 345.500 63.500 345.795 70.807 C 345.990 75.639, 345.611 79.074, 344.675 80.950 L 343.260 83.786 346.880 82.100 C 371.539 70.614, 391.237 55.825, 396.852 44.583 C 400.098 38.082, 400.563 33.761, 398.574 28.554 C 390.627 7.744, 337.808 -3.146, 265.500 1.117 M 199.445 45.068 C 194.287 46.567, 191.500 50.421, 191.500 56.053 C 191.500 61.891, 192.866 63.530, 202.738 69.533 C 209.907 73.891, 211.780 77.277, 208.521 79.983 C 205.911 82.149, 202 79.773, 202 76.021 C 202 73.026, 201.953 73, 196.500 73 L 191 73 191 76.777 C 191 84.107, 196.203 88, 206 88 C 213.523 88, 217.686 85.997, 219.579 81.466 C 222.885 73.553, 220.403 68.298, 210.685 62.633 C 203.117 58.222, 201.694 56.827, 202.181 54.298 C 202.422 53.046, 203.434 52.500, 205.514 52.500 C 208.028 52.500, 208.550 52.935, 208.816 55.250 C 209.119 57.883, 209.370 58, 214.698 58 L 220.263 58 219.716 53.922 C 219.416 51.680, 218.389 48.982, 217.435 47.928 C 214.300 44.464, 206.042 43.151, 199.445 45.068 M 100.494 46.250 C 100.003 47.638, 93.009 85.031, 93.003 86.300 C 93.002 86.740, 95.576 86.965, 98.724 86.800 L 104.448 86.500 107.039 69 C 108.468 59.348, 109.907 52.397, 110.246 53.500 C 110.584 54.600, 111.874 62.587, 113.112 71.250 L 115.363 87 121.249 87 C 126.384 87, 127.069 86.777, 126.620 85.250 C 126.337 84.287, 124.708 75.625, 123 66 C 121.292 56.375, 119.663 47.712, 119.380 46.750 C 118.939 45.252, 117.576 45, 109.901 45 C 103.633 45, 100.804 45.376, 100.494 46.250 M 135.648 50.250 C 135.301 53.138, 135.013 62.587, 135.009 71.250 L 135 87 140 87 C 144.047 87, 145.024 86.667, 145.126 85.250 C 145.195 84.287, 145.532 76.975, 145.876 69 L 146.500 54.500 149.488 70.793 L 152.475 87.086 157.982 86.793 L 163.490 86.500 166.495 70 L 169.500 53.500 169.774 70.250 L 170.048 87 175.524 87 L 181 87 180.995 77.250 C 180.993 71.888, 180.699 62.438, 180.343 56.250 L 179.694 45 171.427 45 C 161.869 45, 163.258 42.920, 160.406 61.500 C 159.478 67.550, 158.419 72.840, 158.054 73.255 C 157.688 73.671, 156.604 68.946, 155.644 62.755 C 154.684 56.565, 153.646 50.038, 153.338 48.250 L 152.777 45 144.528 45 L 136.279 45 135.648 50.250 M 230.004 62.250 C 230.007 77.493, 230.231 79.866, 231.926 82.647 C 234.379 86.669, 239.407 88.356, 247.255 87.788 C 252.515 87.407, 253.667 86.938, 256.149 84.160 L 259 80.968 259 62.984 L 259 45 254 45 L 249 45 248.985 61.250 C 248.976 70.188, 248.590 78.099, 248.126 78.830 C 247.647 79.586, 246.034 80.018, 244.391 79.830 L 241.500 79.500 241.226 62.250 L 240.953 45 235.476 45 L 230 45 230.004 62.250 M 271 65.958 L 271 87 276 87 L 281 87 281.066 71.250 L 281.132 55.500 285.896 71 L 290.661 86.500 298.081 86.500 L 305.500 86.500 305.500 66 L 305.500 45.500 300.500 45.500 L 295.500 45.500 295.685 61 C 295.786 69.525, 295.593 75.825, 295.254 75 C 294.916 74.175, 292.779 67.200, 290.505 59.500 L 286.371 45.500 278.685 45.208 L 271 44.916 271 65.958" stroke="none" fill="currentColor" fill-rule="evenodd"/></g></svg>
