<svg xmlns="http://www.w3.org/2000/svg" viewBox="0.8271 0.7944 22.3608 22.4112">
<g transform="translate(1.9938 2.0000) scale(0.066667)"><path d="M 145.603 1.643 C 142.910 2.470, 139.535 3.865, 138.103 4.744 C 136.672 5.624, 122 19.736, 105.500 36.105 C 86.682 54.774, 74.568 66.055, 73 66.372 C 54.826 70.041, 49.401 72.466, 19.500 90.289 L 0.500 101.614 0.575 113.557 C 0.663 127.428, 1.939 133.815, 6.555 143.500 C 12.259 155.466, 21.514 164.884, 33.975 171.402 C 41.999 175.599, 46.954 176.961, 57.356 177.828 L 65.422 178.500 66.861 182.500 C 72.547 198.307, 76.584 207.502, 79.941 212.294 L 83.831 217.848 84.166 232.903 L 84.500 247.957 79.169 252.627 C 68.783 261.725, 66 269.133, 66 287.682 L 66 300 141.951 300 C 193.143 300, 219.629 299.643, 223.201 298.904 C 226.115 298.301, 230.820 296.521, 233.655 294.949 L 238.811 292.090 244.155 294.950 C 258.716 302.742, 275.534 300.762, 287.473 289.851 C 301.918 276.649, 303.882 255.282, 292.010 240.500 C 289.802 237.750, 286.830 234.054, 285.407 232.287 L 282.819 229.074 284.956 222.899 C 290.092 208.056, 291.618 190.437, 289.011 176.060 C 283.391 145.066, 259.674 117.956, 229.207 107.702 C 225.196 106.352, 221.706 105.040, 221.452 104.785 C 221.198 104.531, 223.311 101.670, 226.148 98.428 C 232.525 91.141, 234.950 85.961, 234.978 79.566 C 235.009 72.569, 232.158 67.461, 223.575 59.139 C 213.652 49.516, 209.514 47.764, 195.384 47.201 L 184.268 46.759 185.634 42.220 C 187.706 35.335, 187.402 18.481, 185.114 13.444 C 182.846 8.451, 176.317 2.711, 171.142 1.161 C 165.794 -0.442, 151.514 -0.172, 145.603 1.643 M 147.500 20.882 C 145.850 21.935, 130.809 36.536, 114.076 53.329 L 83.652 83.860 78.576 84.514 C 64.121 86.376, 57.025 89.314, 35.176 102.486 L 19 112.238 19 116.909 C 19 133.216, 28.641 148.156, 43.777 155.306 C 50.073 158.280, 51.387 158.514, 64.481 158.991 L 78.463 159.500 83.255 172.500 C 92.749 198.258, 93.038 198.881, 98.097 204.416 L 103 209.780 103 235.813 L 103 261.845 99.250 263.071 C 90.864 265.814, 85.019 271.838, 85.007 277.750 L 85 281 98.465 281 C 110.794 281, 112.018 280.835, 112.974 279.049 C 113.548 277.976, 119.643 261.888, 126.518 243.299 C 133.394 224.710, 139.400 208.825, 139.865 208 C 140.499 206.877, 142.976 206.428, 149.713 206.214 L 158.714 205.929 159.247 219.214 C 159.910 235.728, 161.965 241.968, 169.291 249.714 C 173.834 254.518, 183.875 260.707, 187.910 261.191 C 188.784 261.295, 179.341 261.633, 166.925 261.941 C 144.535 262.495, 144.316 262.522, 140.298 265.183 C 135.802 268.160, 132.331 273.094, 131.377 277.865 L 130.750 281 175.125 280.978 C 216.556 280.958, 219.778 280.830, 223.684 279.057 C 228.041 277.078, 232.339 271.716, 233.548 266.750 C 233.916 265.238, 234.650 264, 235.179 264 C 235.709 264, 239.261 266.813, 243.073 270.250 C 251.491 277.840, 257.082 281, 262.092 281 C 272.089 281, 281 272.281, 281 262.500 C 281 256.497, 278.490 252.396, 268.537 242.140 L 258.974 232.285 262.316 226.736 C 274.554 206.412, 274.352 177.523, 261.821 156.173 C 259.994 153.061, 254.823 146.836, 250.328 142.340 C 243.702 135.711, 240.392 133.294, 232.828 129.560 C 218.350 122.414, 215.288 122.040, 171 122.002 C 149.825 121.984, 131.993 121.639, 131.374 121.235 C 130.205 120.472, 119.782 100.159, 118.585 96.311 L 117.904 94.121 159.202 93.811 C 197.021 93.526, 200.783 93.345, 203.864 91.665 C 208.734 89.010, 216 82.033, 216 80.013 C 216 77.762, 208.585 69.354, 204.935 67.466 C 202.631 66.275, 196.560 66, 172.550 66 C 156.297 66, 143 65.710, 143 65.355 C 143 65, 148.372 59.189, 154.938 52.442 C 168.106 38.911, 168.333 38.453, 167.808 26.500 L 167.500 19.500 159 19.233 C 152.029 19.015, 149.960 19.311, 147.500 20.882 M 68.636 96.636 C 66.211 99.062, 66 99.938, 66 107.581 C 66 114.902, 66.284 116.219, 68.394 118.672 C 70.307 120.896, 71.633 121.455, 75 121.455 C 78.367 121.455, 79.693 120.896, 81.606 118.672 C 83.716 116.219, 84 114.902, 84 107.581 C 84 99.938, 83.789 99.062, 81.364 96.636 C 77.735 93.008, 72.265 93.008, 68.636 96.636" stroke="none" fill="currentColor" fill-rule="evenodd"/></g></svg>
