<svg xmlns="http://www.w3.org/2000/svg" viewBox="2.1320 0.8020 19.7358 22.3894">
<g transform="translate(1.4172 1.4437) scale(0.070640)"><path d="M 191 8.727 C 188.738 9.586, 181.270 14.732, 174.107 20.369 L 167.713 25.400 150.607 25.509 C 127.539 25.656, 113.056 28.923, 94.328 38.201 C 87.045 41.809, 85.817 42.132, 83.040 41.164 C 77.300 39.163, 75.052 40.962, 65.129 55.500 C 61.750 60.450, 56.477 67.425, 53.411 71 C 42.830 83.338, 33.341 101.908, 29.140 118.500 C 18.830 159.213, 28.911 201.502, 56.371 232.725 C 62.154 239.301, 62.631 240.618, 64.872 256.173 C 66.200 265.391, 68.363 269.482, 75.810 276.853 C 84.127 285.087, 94.178 290.065, 103.885 290.760 C 112.561 291.380, 117.076 289.472, 126.867 281.046 L 134.108 274.814 150.304 274.572 C 177.813 274.163, 197.885 268.051, 220.500 253.199 C 229.427 247.336, 247.161 229.580, 253.158 220.500 C 268.147 197.809, 274.474 176.883, 274.474 150 C 274.474 123.158, 268.184 102.317, 253.199 79.500 C 243.445 64.649, 222.886 46.722, 206.181 38.500 L 200.085 35.500 200.042 25.315 C 199.980 10.271, 197.743 6.168, 191 8.727 M 180 27.849 C 175.325 31.585, 169.025 36.961, 166 39.795 C 159.938 45.475, 160.066 46.275, 167.221 47.419 C 171.640 48.126, 178.746 51.529, 183.971 55.441 L 187.441 58.039 188.290 55.770 C 189.498 52.538, 190.509 20.994, 189.403 21.028 C 188.907 21.044, 184.675 24.114, 180 27.849 M 72.579 62 C 66.406 71.906, 63.261 78.595, 64.293 79.626 C 64.626 79.959, 66.338 79.729, 68.098 79.116 C 69.858 78.502, 73.539 78, 76.278 78 L 81.258 78 80.486 72.750 C 80.062 69.862, 79.442 64.125, 79.108 60 L 78.500 52.500 72.579 62 M 147.302 58.103 C 140.789 60.607, 133.233 67.318, 129.775 73.671 C 126.832 79.080, 124.815 89.644, 120.455 122.500 C 117.364 145.795, 114.335 158.655, 109.585 168.659 C 105.730 176.775, 103.430 178.690, 100.226 176.446 C 95.722 173.291, 96.492 156.691, 102.170 134.526 C 105.853 120.149, 105.705 113.548, 101.486 104.149 C 95.898 91.697, 84.384 85.437, 71.968 88.100 C 61.861 90.268, 53.571 101.087, 50.338 116.332 C 48.390 125.516, 49.016 131.443, 53.526 146.500 C 58.252 162.276, 58.884 170.894, 56.106 181.667 C 52.175 196.909, 53.417 203.876, 63.222 221.586 C 70.228 234.240, 72.786 241.468, 73.887 251.716 C 74.976 261.847, 77.773 267.039, 85.248 272.806 C 94.956 280.295, 104.927 283.311, 111.249 280.669 C 113.175 279.864, 117.274 276.922, 120.357 274.130 C 129.313 266.019, 132.662 264.305, 146.986 260.497 C 167.577 255.025, 171.196 252.235, 180.045 235.008 C 186.893 221.675, 191.637 217.013, 204.489 210.983 C 214.295 206.383, 214.576 206.155, 218.185 199.893 C 222.420 192.544, 226.498 180.876, 227.501 173.234 C 229.018 161.680, 223.953 152.631, 212.870 147.093 C 196.259 138.792, 189.838 142.185, 175.245 166.969 C 160.070 192.742, 157.384 195.751, 152.834 192.066 C 150.745 190.375, 150.715 190.058, 151.916 182.409 C 153.469 172.521, 158.733 156.466, 163.579 146.840 C 165.611 142.803, 171.578 132.750, 176.839 124.500 C 189.659 104.393, 191.347 100.114, 190.812 89.067 C 190.456 81.701, 189.924 79.614, 187.022 74.179 C 178.894 58.962, 162.416 52.292, 147.302 58.103 M 228.069 126.230 C 226.182 128.578, 222.742 132.120, 220.424 134.101 L 216.210 137.702 222.355 141.765 C 229.500 146.489, 229.090 146.858, 230.989 134 C 232.748 122.100, 232.314 120.946, 228.069 126.230" stroke="none" fill="currentColor" fill-rule="evenodd"/></g></svg>
