<svg xmlns="http://www.w3.org/2000/svg" viewBox="1.7016 0.7953 20.5968 22.3944">
<g transform="translate(1.9875 1.9750) scale(0.062578)"><path d="M 51.415 1.430 C 45.792 3.863, 42.117 10.347, 43.420 15.537 C 43.770 16.933, 50.339 26.360, 58.016 36.487 C 65.694 46.613, 71.741 55.484, 71.454 56.199 C 71.167 56.915, 69.097 58.850, 66.854 60.500 C 59.693 65.768, 44.137 82.957, 37.476 92.962 C 27.179 108.429, 19.403 126.744, 15.870 143.850 C 14.823 148.920, 14.819 150.270, 15.847 150.906 C 16.547 151.338, 21.705 152.257, 27.310 152.949 C 38.409 154.318, 80.662 161.040, 93.500 163.480 C 117.567 168.054, 129.060 169.080, 155.570 169.024 L 181.640 168.968 185.039 173.234 C 194.764 185.439, 220.399 213.989, 221.013 213.298 C 221.916 212.281, 233 167.689, 233 165.075 C 233 163.998, 233.525 162.794, 234.166 162.398 C 235.379 161.648, 282.245 153.912, 282.717 154.383 C 283.491 155.158, 241.463 278.537, 239.887 280.113 C 237.452 282.548, 233.328 283.501, 230.110 282.372 C 228.599 281.842, 213.483 266.091, 194.225 244.978 C 175.924 224.915, 160.523 208.500, 160 208.500 C 159.477 208.500, 144.076 224.915, 125.775 244.978 C 106.517 266.091, 91.401 281.842, 89.890 282.372 C 86.684 283.497, 82.550 282.550, 80.140 280.140 C 79.126 279.126, 69.439 251.769, 58.090 217.866 L 37.848 157.402 26.260 155.698 C 19.886 154.762, 14.526 154.140, 14.349 154.318 C 14.171 154.495, 13.733 160.459, 13.375 167.570 C 11.276 209.267, 26.470 248.007, 56.492 277.500 C 86.312 306.795, 124.928 321.547, 166.901 319.680 C 210.724 317.730, 251.426 296.484, 277.404 261.998 C 290.132 245.102, 297.792 229.087, 303.226 208.011 C 305.734 198.284, 306.275 193.942, 306.714 180 C 307.501 154.979, 304.085 136.396, 294.800 115.181 C 286.661 96.584, 275.435 81.195, 258.279 65.116 L 247.957 55.442 261.969 36.683 C 269.676 26.366, 276.259 16.816, 276.599 15.462 C 277.902 10.270, 274.131 3.788, 268.418 1.401 C 265.737 0.281, 264.505 0.270, 261.336 1.336 C 258.033 2.447, 255.486 5.286, 243 21.774 C 235.025 32.305, 228.019 41.398, 227.431 41.980 C 226.677 42.726, 224.463 42.181, 219.931 40.135 C 205.012 33.399, 186.240 28.894, 166.912 27.410 C 147.607 25.929, 114.816 32.421, 97.825 41.089 C 95.765 42.140, 93.845 43, 93.559 43 C 93.272 43, 86.256 33.980, 77.966 22.955 C 69.677 11.931, 61.906 2.541, 60.697 2.089 C 55.791 0.254, 54.366 0.153, 51.415 1.430 M 87 165.533 C 87 166.636, 98.068 210.577, 98.780 212.300 C 99.381 213.755, 102.966 210.155, 117.512 193.487 C 127.405 182.150, 135.636 172.493, 135.803 172.027 C 135.970 171.562, 132.595 170.876, 128.303 170.504 C 124.011 170.132, 113.075 168.741, 104 167.414 C 85.021 164.638, 87 164.857, 87 165.533" stroke="none" fill="currentColor" fill-rule="evenodd"/></g></svg>
